<?xml version="1.0" encoding="UTF-8" standalone="no"?>
<!DOCTYPE svg PUBLIC "-//W3C//DTD SVG 1.1//EN" "http://www.w3.org/Graphics/SVG/1.1/DTD/svg11.dtd">
<svg width="100%" height="100%" viewBox="0 0 64 64" version="1.1" xmlns="http://www.w3.org/2000/svg" xmlns:xlink="http://www.w3.org/1999/xlink" xml:space="preserve" xmlns:serif="http://www.serif.com/" style="fill-rule:evenodd;clip-rule:evenodd;stroke-linejoin:round;stroke-miterlimit:2;">
    <g transform="matrix(1.84805,0,0,1.84805,-826.826,-577.926)">
        <path d="M454.513,345.188L453.484,344.16L458.523,339.122L459.551,340.149L454.513,345.188Z" style="fill:rgb(64,64,66);fill-rule:nonzero;"/>
    </g>
    <g transform="matrix(1.84805,0,0,1.84805,-826.826,-577.926)">
        <path d="M474.725,345.188L475.753,344.16L470.714,339.122L469.686,340.149L474.725,345.188Z" style="fill:rgb(64,64,66);fill-rule:nonzero;"/>
    </g>
    <g transform="matrix(1.84805,0,0,1.84805,-826.826,-577.926)">
        <path d="M464.895,317.837C457.882,317.714 452.097,323.3 451.975,330.313C451.852,337.327 457.438,343.111 464.451,343.234C464.608,343.237 464.765,343.233 464.921,343.231L464.921,317.838C464.913,317.838 464.904,317.837 464.895,317.837Z" style="fill:rgb(196,97,105);fill-rule:nonzero;"/>
    </g>
    <g transform="matrix(1.84805,0,0,1.84805,-826.826,-577.926)">
        <path d="M477.372,330.758C477.494,323.753 471.922,317.975 464.921,317.838L464.921,343.231C471.722,343.102 477.252,337.614 477.372,330.758Z" style="fill:rgb(168,84,91);fill-rule:nonzero;"/>
    </g>
    <g transform="matrix(1.84805,0,0,1.84805,-826.826,-577.926)">
        <path d="M464.888,320.583C464.874,320.583 464.861,320.581 464.848,320.581C464.718,320.578 464.589,320.581 464.458,320.583C461.871,320.638 459.518,321.682 457.772,323.358C457.768,323.363 457.762,323.368 457.757,323.373C457.739,323.39 457.724,323.408 457.707,323.425C455.913,325.182 454.778,327.615 454.72,330.322C454.719,330.335 454.718,330.348 454.718,330.361C454.622,335.846 458.98,340.372 464.458,340.489C464.473,340.489 464.485,340.491 464.499,340.491C464.629,340.494 464.759,340.491 464.888,340.489L464.888,340.488C464.899,340.488 464.91,340.486 464.921,340.486L464.921,320.585C464.91,320.585 464.899,320.583 464.888,320.583Z" style="fill:rgb(240,237,226);fill-rule:nonzero;"/>
    </g>
    <g transform="matrix(1.84805,0,0,1.84805,-826.826,-577.926)">
        <path d="M474.625,330.322L474.624,330.322C474.515,325.025 470.254,320.717 464.921,320.585L464.921,340.486C467.492,340.423 469.828,339.387 471.563,337.722C471.571,337.714 471.582,337.707 471.59,337.699C471.621,337.669 471.649,337.638 471.68,337.608C473.451,335.853 474.568,333.437 474.626,330.75C474.626,330.736 474.628,330.724 474.628,330.71C474.63,330.58 474.628,330.45 474.625,330.322Z" style="fill:rgb(221,219,208);fill-rule:nonzero;"/>
    </g>
    <g transform="matrix(1.84805,0,0,1.84805,-826.826,-577.926)">
        <path d="M450.852,316.62C448.559,318.913 448.542,322.618 450.798,324.935L459.166,316.567C456.85,314.311 453.145,314.327 450.852,316.62Z" style="fill:rgb(64,64,66);fill-rule:nonzero;"/>
    </g>
    <g transform="matrix(1.84805,0,0,1.84805,-826.826,-577.926)">
        <path d="M478.589,316.62C480.883,318.913 480.898,322.618 478.643,324.935L470.274,316.567C472.591,314.311 476.296,314.327 478.589,316.62Z" style="fill:rgb(64,64,66);fill-rule:nonzero;"/>
    </g>
    <g transform="matrix(1.84805,0,0,1.84805,-826.826,-577.926)">
        <path d="M470.237,324.578C469.928,324.317 469.556,324.25 469.406,324.427L464.921,329.768L464.921,331.46C465.138,331.548 465.342,331.548 465.442,331.428L470.528,325.37C470.678,325.192 470.547,324.838 470.237,324.578Z" style="fill:rgb(116,170,168);fill-rule:nonzero;"/>
    </g>
    <g transform="matrix(1.84805,0,0,1.84805,-826.826,-577.926)">
        <path d="M464.32,330.484C464.171,330.663 464.301,331.018 464.611,331.278C464.712,331.363 464.818,331.418 464.921,331.46L464.921,329.768L464.32,330.484Z" style="fill:rgb(126,188,187);fill-rule:nonzero;"/>
    </g>
    <g transform="matrix(1.84805,0,0,1.84805,-826.826,-577.926)">
        <path d="M465.219,330.808C465.14,330.684 465.034,330.6 464.921,330.542L464.921,331.764L465.138,331.627C465.375,331.478 465.41,331.11 465.219,330.808Z" style="fill:rgb(126,188,187);fill-rule:nonzero;"/>
    </g>
    <g transform="matrix(1.84805,0,0,1.84805,-826.826,-577.926)">
        <path d="M464.444,330.532L460.238,333.196C460.001,333.347 459.965,333.713 460.156,334.016C460.348,334.318 460.696,334.442 460.933,334.292L464.921,331.764L464.921,330.542C464.76,330.46 464.584,330.443 464.444,330.532Z" style="fill:rgb(126,188,187);fill-rule:nonzero;"/>
    </g>
</svg>
