<?xml version="1.0" encoding="UTF-8" standalone="no"?>
<!DOCTYPE svg PUBLIC "-//W3C//DTD SVG 1.1//EN" "http://www.w3.org/Graphics/SVG/1.1/DTD/svg11.dtd">
<svg width="100%" height="100%" viewBox="0 0 64 64" version="1.1" xmlns="http://www.w3.org/2000/svg" xmlns:xlink="http://www.w3.org/1999/xlink" xml:space="preserve" xmlns:serif="http://www.serif.com/" style="fill-rule:evenodd;clip-rule:evenodd;stroke-linejoin:round;stroke-miterlimit:2;">
    <g transform="matrix(1.74581,0,0,1.74581,-1687.48,-1355.28)">
        <path d="M997.59,782.337L972.256,782.337C970.694,782.337 969.43,783.602 969.43,785.163L969.43,787.882L1000.41,787.882L1000.41,785.163C1000.41,783.602 999.15,782.337 997.59,782.337Z" style="fill:rgb(196,97,105);fill-rule:nonzero;"/>
    </g>
    <g transform="matrix(1.74581,0,0,1.74581,-1687.48,-1355.28)">
        <path d="M969.43,787.882L969.43,807.11C969.43,808.671 970.694,809.935 972.256,809.935L997.59,809.935C999.15,809.935 1000.41,808.671 1000.41,807.11L1000.41,787.882L969.43,787.882Z" style="fill:rgb(240,237,226);fill-rule:nonzero;"/>
    </g>
    <g transform="matrix(1.74581,0,0,1.74581,-1687.48,-1355.28)">
        <path d="M984.923,787.882L984.923,809.935L997.59,809.935C999.15,809.935 1000.41,808.671 1000.41,807.11L1000.41,787.882L984.923,787.882Z" style="fill:rgb(221,219,208);fill-rule:nonzero;"/>
    </g>
    <g transform="matrix(1.74581,0,0,1.74581,-1687.48,-1355.28)">
        <path d="M1000.41,785.163C1000.41,783.602 999.15,782.337 997.59,782.337L984.923,782.337L984.923,787.882L1000.41,787.882L1000.41,785.163Z" style="fill:rgb(175,88,95);fill-rule:nonzero;"/>
    </g>
    <g transform="matrix(1.74581,0,0,1.74581,-1687.48,-1355.28)">
        <path d="M972.256,782.337C970.694,782.337 969.43,783.602 969.43,785.163L969.43,787.882L984.923,787.882L984.923,782.337L972.256,782.337Z" style="fill:rgb(196,97,105);fill-rule:nonzero;"/>
    </g>
    <g transform="matrix(1.74581,0,0,1.74581,-1687.48,-1355.28)">
        <path d="M975.236,779.332L974.498,779.332C973.852,779.332 973.327,779.855 973.327,780.503L973.327,785.605C973.327,786.252 973.852,786.776 974.498,786.776L975.236,786.776C975.884,786.776 976.408,786.252 976.408,785.605L976.408,780.503C976.408,779.855 975.884,779.332 975.236,779.332Z" style="fill:rgb(78,79,81);fill-rule:nonzero;"/>
    </g>
    <g transform="matrix(1.74581,0,0,1.74581,-1687.48,-1355.28)">
        <path d="M975.236,779.332L974.867,779.332L974.867,786.776L975.236,786.776C975.884,786.776 976.408,786.252 976.408,785.605L976.408,780.503C976.408,779.855 975.884,779.332 975.236,779.332Z" style="fill:rgb(64,64,66);fill-rule:nonzero;"/>
    </g>
    <g transform="matrix(1.74581,0,0,1.74581,-1687.48,-1355.28)">
        <path d="M995.347,779.332L994.608,779.332C993.961,779.332 993.436,779.855 993.436,780.503L993.436,785.605C993.436,786.252 993.961,786.776 994.608,786.776L995.347,786.776C995.993,786.776 996.518,786.252 996.518,785.605L996.518,780.503C996.518,779.855 995.993,779.332 995.347,779.332Z" style="fill:rgb(78,79,81);fill-rule:nonzero;"/>
    </g>
    <g transform="matrix(1.74581,0,0,1.74581,-1687.48,-1355.28)">
        <path d="M995.347,779.332L994.977,779.332L994.977,786.776L995.347,786.776C995.993,786.776 996.518,786.252 996.518,785.605L996.518,780.503C996.518,779.855 995.993,779.332 995.347,779.332Z" style="fill:rgb(64,64,66);fill-rule:nonzero;"/>
    </g>
    <g transform="matrix(1.74581,0,0,1.74581,-1687.48,-1355.28)">
        <path d="M984.941,807.021L984.929,807.021C982.757,807.015 981.45,805.495 981.528,803.767C981.528,802.139 982.604,800.826 984.601,800.248C984.712,800.28 984.82,800.313 984.929,800.348C987.046,801.005 988.354,802.003 988.354,803.977C988.354,805.735 987.016,807.021 984.941,807.021ZM982.001,795.444C982.001,793.984 983.037,792.733 984.929,792.715C984.942,792.715 984.954,792.714 984.968,792.714C987.042,792.714 987.855,794.132 987.855,795.497C987.855,797.046 986.727,798.096 985.257,798.595C985.144,798.564 985.036,798.533 984.929,798.501C983.146,797.962 982.001,797.054 982.001,795.444ZM987.252,799.329L987.252,799.251C989.352,798.253 990.06,796.704 990.06,795.261C990.06,793.134 988.407,791.06 985.1,791.06C985.041,791.06 984.985,791.065 984.929,791.066C982.02,791.136 979.822,792.95 979.822,795.602C979.822,797.071 980.636,798.542 982.526,799.435L982.553,799.513C980.452,800.406 979.166,801.929 979.166,804.081C979.166,806.575 981.318,808.702 984.889,808.702C984.902,808.702 984.915,808.7 984.929,808.7C988.165,808.685 990.691,806.694 990.691,803.74C990.691,801.666 989.378,800.17 987.252,799.329Z" style="fill:rgb(78,79,81);fill-rule:nonzero;"/>
    </g>
    <g transform="matrix(1.74581,0,0,1.74581,-1687.48,-1355.28)">
        <path d="M990.691,803.74C990.691,801.666 989.378,800.17 987.252,799.329L987.252,799.251C989.352,798.253 990.06,796.704 990.06,795.261C990.06,793.134 988.407,791.06 985.1,791.06C985.041,791.06 984.985,791.065 984.929,791.066L984.929,792.715C984.942,792.715 984.954,792.714 984.968,792.714C987.042,792.714 987.855,794.132 987.855,795.497C987.855,797.046 986.727,798.096 985.257,798.595C985.144,798.564 985.036,798.533 984.929,798.501L984.929,800.348C987.046,801.005 988.354,802.003 988.354,803.977C988.354,805.735 987.016,807.021 984.941,807.021L984.929,807.021L984.929,808.7C988.165,808.685 990.691,806.694 990.691,803.74Z" style="fill:rgb(64,64,66);fill-rule:nonzero;"/>
    </g>
</svg>
