<?xml version="1.0" encoding="UTF-8" standalone="no"?>
<!DOCTYPE svg PUBLIC "-//W3C//DTD SVG 1.1//EN" "http://www.w3.org/Graphics/SVG/1.1/DTD/svg11.dtd">
<svg width="100%" height="100%" viewBox="0 0 64 64" version="1.1" xmlns="http://www.w3.org/2000/svg" xmlns:xlink="http://www.w3.org/1999/xlink" xml:space="preserve" xmlns:serif="http://www.serif.com/" style="fill-rule:evenodd;clip-rule:evenodd;stroke-linejoin:round;stroke-miterlimit:2;">
    <g transform="matrix(1.88663,0,0,1.88663,-476.722,-1216.75)">
        <path d="M277.366,649.759L278.756,652.694L260.531,661.328L259.14,658.393L277.366,649.759Z" style="fill:rgb(240,237,226);fill-rule:nonzero;"/>
    </g>
    <g transform="matrix(1.88663,0,0,1.88663,-476.722,-1216.75)">
        <path d="M282.721,650.981C282.661,653.451 280.61,655.405 278.141,655.345C275.67,655.285 273.716,653.234 273.776,650.765C273.836,648.295 275.887,646.341 278.357,646.4C280.827,646.46 282.781,648.511 282.721,650.981Z" style="fill:rgb(230,186,89);fill-rule:nonzero;"/>
    </g>
    <g transform="matrix(1.88663,0,0,1.88663,-476.722,-1216.75)">
        <path d="M260.66,662.58L262.561,659.947L278.912,671.754L277.01,674.387L260.66,662.58Z" style="fill:rgb(240,237,226);fill-rule:nonzero;"/>
    </g>
    <g transform="matrix(1.88663,0,0,1.88663,-476.722,-1216.75)">
        <path d="M265.359,661.747C264.71,664.131 262.251,665.537 259.867,664.889C257.483,664.239 256.077,661.781 256.726,659.396C257.375,657.013 259.833,655.606 262.218,656.256C264.602,656.904 266.008,659.363 265.359,661.747Z" style="fill:rgb(230,186,89);fill-rule:nonzero;"/>
    </g>
    <g transform="matrix(1.88663,0,0,1.88663,-476.722,-1216.75)">
        <path d="M282.09,674.132C281.416,676.508 278.942,677.889 276.565,677.214C274.188,676.539 272.809,674.065 273.483,671.688C274.158,669.312 276.631,667.932 279.008,668.606C281.385,669.281 282.765,671.755 282.09,674.132Z" style="fill:rgb(230,186,89);fill-rule:nonzero;"/>
    </g>
</svg>
