<?xml version="1.0" encoding="UTF-8" standalone="no"?>
<!DOCTYPE svg PUBLIC "-//W3C//DTD SVG 1.1//EN" "http://www.w3.org/Graphics/SVG/1.1/DTD/svg11.dtd">
<svg width="100%" height="100%" viewBox="0 0 64 64" version="1.1" xmlns="http://www.w3.org/2000/svg" xmlns:xlink="http://www.w3.org/1999/xlink" xml:space="preserve" xmlns:serif="http://www.serif.com/" style="fill-rule:evenodd;clip-rule:evenodd;stroke-linejoin:round;stroke-miterlimit:2;">
    <g transform="matrix(1.72162,0,0,1.72162,-1103.92,-650.466)">
        <rect x="644.194" y="381.202" width="7.904" height="7.903" style="fill:rgb(196,97,105);fill-rule:nonzero;"/>
    </g>
    <g transform="matrix(1.72162,0,0,1.72162,-1103.92,-650.466)">
        <rect x="659.544" y="381.202" width="4.204" height="7.903" style="fill:rgb(168,84,91);fill-rule:nonzero;"/>
    </g>
    <g transform="matrix(1.72162,0,0,1.72162,-1103.92,-650.466)">
        <rect x="655.845" y="381.202" width="3.699" height="7.903" style="fill:rgb(196,97,105);fill-rule:nonzero;"/>
    </g>
    <g transform="matrix(1.72162,0,0,1.72162,-1103.92,-650.466)">
        <rect x="667.494" y="381.202" width="7.903" height="7.903" style="fill:rgb(168,84,91);fill-rule:nonzero;"/>
    </g>
    <g transform="matrix(1.72162,0,0,1.72162,-1103.92,-650.466)">
        <rect x="644.194" y="392.457" width="7.904" height="7.903" style="fill:rgb(196,97,105);fill-rule:nonzero;"/>
    </g>
    <g transform="matrix(1.72162,0,0,1.72162,-1103.92,-650.466)">
        <rect x="659.544" y="392.457" width="4.204" height="7.903" style="fill:rgb(168,84,91);fill-rule:nonzero;"/>
    </g>
    <g transform="matrix(1.72162,0,0,1.72162,-1103.92,-650.466)">
        <rect x="655.845" y="392.457" width="3.699" height="7.903" style="fill:rgb(196,97,105);fill-rule:nonzero;"/>
    </g>
    <g transform="matrix(1.72162,0,0,1.72162,-1103.92,-650.466)">
        <rect x="667.494" y="392.457" width="7.903" height="7.903" style="fill:rgb(168,84,91);fill-rule:nonzero;"/>
    </g>
    <g transform="matrix(1.72162,0,0,1.72162,-1103.92,-650.466)">
        <rect x="644.194" y="403.712" width="7.904" height="7.904" style="fill:rgb(196,97,105);fill-rule:nonzero;"/>
    </g>
    <g transform="matrix(1.72162,0,0,1.72162,-1103.92,-650.466)">
        <rect x="655.845" y="403.712" width="3.699" height="7.904" style="fill:rgb(196,97,105);fill-rule:nonzero;"/>
    </g>
    <g transform="matrix(1.72162,0,0,1.72162,-1103.92,-650.466)">
        <rect x="659.544" y="403.712" width="4.204" height="7.904" style="fill:rgb(168,84,91);fill-rule:nonzero;"/>
    </g>
    <g transform="matrix(1.72162,0,0,1.72162,-1103.92,-650.466)">
        <rect x="667.494" y="403.712" width="7.903" height="7.904" style="fill:rgb(168,84,91);fill-rule:nonzero;"/>
    </g>
</svg>
