<?xml version="1.0" encoding="UTF-8" standalone="no"?>
<!DOCTYPE svg PUBLIC "-//W3C//DTD SVG 1.1//EN" "http://www.w3.org/Graphics/SVG/1.1/DTD/svg11.dtd">
<svg width="100%" height="100%" viewBox="0 0 64 64" version="1.1" xmlns="http://www.w3.org/2000/svg" xmlns:xlink="http://www.w3.org/1999/xlink" xml:space="preserve" xmlns:serif="http://www.serif.com/" style="fill-rule:evenodd;clip-rule:evenodd;stroke-linejoin:round;stroke-miterlimit:2;">
    <g transform="matrix(1.73763,0,0,1.73763,-436.542,-80.1736)">
        <path d="M263.19,50.546C264.839,49.484 266.865,48.954 269.268,48.954C272.425,48.954 275.047,49.708 277.136,51.217C279.225,52.726 280.27,54.961 280.27,57.923C280.27,59.739 279.816,61.269 278.911,62.512C278.381,63.266 277.364,64.23 275.859,65.404L274.375,66.557C273.567,67.185 273.031,67.918 272.766,68.756C272.599,69.288 272.508,70.112 272.494,71.229L266.816,71.229C266.899,68.869 267.123,67.238 267.484,66.336C267.847,65.436 268.78,64.398 270.284,63.225L271.809,62.03C272.311,61.653 272.714,61.241 273.021,60.793C273.578,60.025 273.856,59.18 273.856,58.258C273.856,57.196 273.547,56.229 272.926,55.355C272.307,54.483 271.173,54.046 269.529,54.046C267.913,54.046 266.766,54.584 266.09,55.659C265.414,56.735 265.077,57.853 265.077,59.012L259.019,59.012C259.187,55.03 260.578,52.209 263.19,50.546Z" style="fill:rgb(230,186,89);fill-rule:nonzero;"/>
    </g>
    <g transform="matrix(1.73763,0,0,1.73763,-436.542,-80.1736)">
        <path d="M272.778,78.055C272.778,79.216 271.837,80.157 270.677,80.157L268.614,80.157C267.453,80.157 266.512,79.216 266.512,78.055L266.512,76.202C266.512,75.041 267.453,74.101 268.614,74.101L270.677,74.101C271.837,74.101 272.778,75.041 272.778,76.202L272.778,78.055Z" style="fill:rgb(78,79,81);fill-rule:nonzero;"/>
    </g>
    <g transform="matrix(1.73763,0,0,1.73763,-436.542,-80.1736)">
        <path d="M277.136,51.217C275.124,49.763 272.611,49.017 269.606,48.964L269.606,54.048C271.207,54.062 272.317,54.497 272.926,55.355C273.547,56.229 273.856,57.196 273.856,58.258C273.856,59.18 273.578,60.025 273.021,60.793C272.714,61.241 272.311,61.653 271.809,62.03L270.284,63.225C270.041,63.414 269.82,63.598 269.606,63.78L269.606,71.229L272.494,71.229C272.508,70.112 272.599,69.288 272.766,68.756C273.031,67.918 273.567,67.185 274.375,66.557L275.859,65.404C277.364,64.23 278.381,63.266 278.911,62.512C279.817,61.269 280.27,59.739 280.27,57.923C280.27,54.961 279.225,52.726 277.136,51.217Z" style="fill:rgb(199,162,79);fill-rule:nonzero;"/>
    </g>
    <g transform="matrix(1.73763,0,0,1.73763,-436.542,-80.1736)">
        <path d="M270.677,74.101L269.606,74.101L269.606,80.157L270.677,80.157C271.837,80.157 272.778,79.216 272.778,78.055L272.778,76.202C272.778,75.041 271.837,74.101 270.677,74.101Z" style="fill:rgb(50,51,51);fill-rule:nonzero;"/>
    </g>
</svg>
