<?xml version="1.0" encoding="UTF-8" standalone="no"?>
<!DOCTYPE svg PUBLIC "-//W3C//DTD SVG 1.1//EN" "http://www.w3.org/Graphics/SVG/1.1/DTD/svg11.dtd">
<svg width="100%" height="100%" viewBox="0 0 64 64" version="1.1" xmlns="http://www.w3.org/2000/svg" xmlns:xlink="http://www.w3.org/1999/xlink" xml:space="preserve" xmlns:serif="http://www.serif.com/" style="fill-rule:evenodd;clip-rule:evenodd;stroke-linejoin:round;stroke-miterlimit:2;">
    <g transform="matrix(1.80533,0,0,1.80533,-102.622,-1282.76)">
        <path d="M87.69,713.74L72.146,716.135L70.843,724.683L70.847,724.682L69.223,735.337C68.535,735.015 67.686,734.885 66.735,735.004C64.026,735.342 61.534,737.565 61.167,739.97C60.801,742.375 62.7,744.051 65.408,743.713C68.117,743.374 70.61,741.15 70.976,738.746C70.977,738.741 70.977,738.736 70.978,738.73C70.979,738.727 70.98,738.724 70.98,738.72L73.163,724.393L85.64,722.407L84.031,732.972C83.343,732.649 82.493,732.519 81.543,732.639C78.834,732.977 76.341,735.2 75.975,737.604C75.608,740.01 77.507,741.685 80.216,741.347C82.924,741.009 85.417,738.785 85.783,736.381C85.784,736.375 85.785,736.37 85.785,736.365C85.786,736.361 85.787,736.358 85.788,736.354L88.12,720.375C88.121,720.371 88.122,720.368 88.123,720.364L88.895,715.297C89.041,714.336 88.502,713.639 87.69,713.74Z" style="fill:rgb(88,130,129);fill-rule:nonzero;"/>
    </g>
    <g transform="matrix(1.80533,0,0,1.80533,-102.622,-1282.76)">
        <path d="M86.787,712.779L71.734,715.099C71.438,715.143 71.206,715.413 71.151,715.775L69.94,723.722L69.944,723.721L68.458,733.473C68.387,733.941 68.028,734.233 67.642,734.136C67.1,733.998 66.49,733.961 65.832,734.043C63.124,734.381 60.631,736.604 60.264,739.01C59.898,741.414 61.797,743.09 64.505,742.752C67.214,742.414 69.707,740.19 70.073,737.785C70.074,737.78 70.074,737.775 70.075,737.77C70.076,737.767 70.077,737.764 70.077,737.76L72.168,724.031C72.224,723.67 72.454,723.401 72.749,723.354L83.686,721.613C84.191,721.533 84.636,722.115 84.541,722.734L83.266,731.106C83.194,731.576 82.835,731.868 82.449,731.77C81.908,731.633 81.298,731.596 80.64,731.678C77.931,732.016 75.438,734.239 75.072,736.643C74.706,739.049 76.604,740.725 79.313,740.387C82.022,740.048 84.514,737.825 84.88,735.42C84.881,735.415 84.882,735.41 84.882,735.404C84.883,735.401 84.884,735.397 84.884,735.394L87.217,719.414C87.218,719.411 87.219,719.407 87.22,719.404L87.992,714.336C88.138,713.375 87.599,712.679 86.787,712.779Z" style="fill:rgb(126,188,187);fill-rule:nonzero;"/>
    </g>
</svg>
