<?xml version="1.0" encoding="UTF-8" standalone="no"?>
<!DOCTYPE svg PUBLIC "-//W3C//DTD SVG 1.1//EN" "http://www.w3.org/Graphics/SVG/1.1/DTD/svg11.dtd">
<svg width="100%" height="100%" viewBox="0 0 64 64" version="1.1" xmlns="http://www.w3.org/2000/svg" xmlns:xlink="http://www.w3.org/1999/xlink" xml:space="preserve" xmlns:serif="http://www.serif.com/" style="fill-rule:evenodd;clip-rule:evenodd;stroke-linejoin:round;stroke-miterlimit:2;">
    <g transform="matrix(-0.80528,0.542192,-0.542192,-0.80528,809.033,-313.348)">
        <path d="M870.467,127.66C870.42,127.116 870.13,126.591 869.59,126.279L863.765,122.916L857.938,119.552C856.757,118.87 855.279,119.723 855.279,121.088L855.279,122.377C850.548,123.535 840.621,128.832 839.277,141.705C839.215,142.303 839.563,142.45 840.042,142.607C840.401,142.726 840.819,142.673 841.158,142.375C843.784,140.058 848.801,134.569 855.279,133.561L855.279,134.542C855.279,135.906 856.757,136.759 857.938,136.077L863.765,132.713L869.59,129.35C870.232,128.979 870.522,128.307 870.467,127.66Z" style="fill:rgb(175,88,95);fill-rule:nonzero;"/>
    </g>
    <g transform="matrix(-0.80528,0.542192,-0.542192,-0.80528,809.033,-313.348)">
        <path d="M869.491,127.01C869.447,126.501 869.175,126.008 868.669,125.716L857.747,119.41C856.639,118.771 855.254,119.57 855.254,120.85L855.254,122.059C850.818,123.143 840.587,129.039 839.327,141.107C839.268,141.667 839.316,142.118 839.773,142.239C840.587,142.456 841.18,141.568 841.925,140.856C844.299,138.588 849.181,133.487 855.254,132.542L855.254,133.461C855.254,134.741 856.639,135.541 857.747,134.901L868.669,128.595C869.27,128.247 869.543,127.617 869.491,127.01Z" style="fill:rgb(196,97,105);fill-rule:nonzero;"/>
    </g>
    <g transform="matrix(0.904102,0.353622,-0.353622,0.904102,-694.436,-401.454)">
        <path d="M870.467,127.66C870.42,127.116 870.13,126.591 869.59,126.279L863.765,122.916L857.938,119.552C856.757,118.87 855.279,119.723 855.279,121.088L855.279,122.377C850.548,123.535 840.621,128.832 839.277,141.705C839.215,142.303 839.563,142.45 840.042,142.607C840.401,142.726 840.819,142.673 841.158,142.375C843.784,140.058 848.801,134.569 855.279,133.561L855.279,134.542C855.279,135.906 856.757,136.759 857.938,136.077L863.765,132.713L869.59,129.35C870.232,128.979 870.522,128.307 870.467,127.66Z" style="fill:rgb(102,146,146);fill-rule:nonzero;"/>
    </g>
    <g transform="matrix(0.904102,0.353622,-0.353622,0.904102,-694.436,-401.454)">
        <path d="M869.491,127.01C869.447,126.501 869.175,126.008 868.669,125.716L857.747,119.41C856.639,118.771 855.254,119.57 855.254,120.85L855.254,122.059C850.818,123.143 840.587,129.039 839.327,141.107C839.268,141.667 839.316,142.118 839.773,142.239C840.587,142.456 841.18,141.568 841.925,140.856C844.299,138.588 849.181,133.487 855.254,132.542L855.254,133.461C855.254,134.741 856.639,135.541 857.747,134.901L868.669,128.595C869.27,128.247 869.543,127.617 869.491,127.01Z" style="fill:rgb(121,174,174);fill-rule:nonzero;"/>
    </g>
    <g transform="matrix(-0.809153,-0.125748,0.125748,-0.809153,642.076,253.859)">
        <path d="M774.252,127.66C774.299,127.116 774.589,126.591 775.129,126.279L780.954,122.916L786.78,119.552C787.962,118.87 789.439,119.723 789.439,121.088L789.439,122.377C794.171,123.535 804.098,128.832 805.441,141.705C805.503,142.303 805.155,142.45 804.677,142.607C804.317,142.726 803.899,142.673 803.56,142.375C800.935,140.058 795.918,134.569 789.439,133.561L789.439,134.542C789.439,135.906 787.962,136.759 786.78,136.077L780.954,132.713L775.129,129.35C774.486,128.979 774.196,128.307 774.252,127.66Z" style="fill:rgb(199,162,79);fill-rule:nonzero;"/>
    </g>
    <g transform="matrix(-0.809153,-0.125748,0.125748,-0.809153,642.076,253.859)">
        <path d="M775.227,127.01C775.271,126.501 775.544,126.008 776.05,125.716L786.972,119.41C788.08,118.771 789.465,119.57 789.465,120.85L789.465,122.059C793.9,123.143 804.132,129.039 805.392,141.107C805.45,141.668 805.402,142.118 804.945,142.239C804.132,142.456 803.539,141.568 802.794,140.856C800.42,138.588 795.538,133.487 789.465,132.542L789.465,133.461C789.465,134.741 788.08,135.541 786.972,134.901L776.05,128.595C775.448,128.247 775.176,127.617 775.227,127.01Z" style="fill:rgb(230,186,89);fill-rule:nonzero;"/>
    </g>
</svg>
