<?xml version="1.0" encoding="UTF-8" standalone="no"?>
<!DOCTYPE svg PUBLIC "-//W3C//DTD SVG 1.1//EN" "http://www.w3.org/Graphics/SVG/1.1/DTD/svg11.dtd">
<svg width="100%" height="100%" viewBox="0 0 64 64" version="1.1" xmlns="http://www.w3.org/2000/svg" xmlns:xlink="http://www.w3.org/1999/xlink" xml:space="preserve" xmlns:serif="http://www.serif.com/" style="fill-rule:evenodd;clip-rule:evenodd;stroke-linejoin:round;stroke-miterlimit:2;">
    <g transform="matrix(1.85557,0,0,1.85557,-347.687,-457.254)">
        <path d="M204.198,258.282L204.198,263.478L194.037,263.478L194.037,269.515L194.879,269.515L194.879,264.32L204.637,264.32L204.637,258.282L204.198,258.282Z" style="fill:rgb(109,161,161);fill-rule:nonzero;"/>
    </g>
    <g transform="matrix(1.85557,0,0,1.85557,-347.687,-457.254)">
        <path d="M215.203,263.478L205.041,263.478L205.041,258.282L204.637,258.282L204.637,264.32L214.36,264.32L214.36,269.515L215.203,269.515L215.203,263.478Z" style="fill:rgb(92,136,135);fill-rule:nonzero;"/>
    </g>
    <g transform="matrix(1.85557,0,0,1.85557,-347.687,-457.254)">
        <path d="M207.746,253.55L204.637,253.55L204.637,260.961L207.746,260.961C208.791,260.961 209.638,260.113 209.638,259.068L209.638,255.441C209.638,254.397 208.791,253.55 207.746,253.55Z" style="fill:rgb(199,162,79);fill-rule:nonzero;"/>
    </g>
    <g transform="matrix(1.85557,0,0,1.85557,-347.687,-457.254)">
        <path d="M201.493,253.55C200.448,253.55 199.602,254.397 199.602,255.441L199.602,259.068C199.602,260.113 200.448,260.961 201.493,260.961L204.637,260.961L204.637,253.55L201.493,253.55Z" style="fill:rgb(230,186,89);fill-rule:nonzero;"/>
    </g>
    <g transform="matrix(1.85557,0,0,1.85557,-347.687,-457.254)">
        <path d="M199.055,271.892C199.055,272.937 198.208,273.785 197.163,273.785L190.91,273.785C189.866,273.785 189.019,272.937 189.019,271.892L189.019,268.266C189.019,267.22 189.866,266.374 190.91,266.374L197.163,266.374C198.208,266.374 199.055,267.22 199.055,268.266L199.055,271.892Z" style="fill:rgb(230,186,89);fill-rule:nonzero;"/>
    </g>
    <g transform="matrix(1.85557,0,0,1.85557,-347.687,-457.254)">
        <path d="M220.221,271.892C220.221,272.937 219.374,273.785 218.329,273.785L212.077,273.785C211.032,273.785 210.185,272.937 210.185,271.892L210.185,268.266C210.185,267.22 211.032,266.374 212.077,266.374L218.329,266.374C219.374,266.374 220.221,267.22 220.221,268.266L220.221,271.892Z" style="fill:rgb(199,162,79);fill-rule:nonzero;"/>
    </g>
</svg>
