<?xml version="1.0" encoding="UTF-8" standalone="no"?>
<!DOCTYPE svg PUBLIC "-//W3C//DTD SVG 1.1//EN" "http://www.w3.org/Graphics/SVG/1.1/DTD/svg11.dtd">
<svg width="100%" height="100%" viewBox="0 0 64 64" version="1.1" xmlns="http://www.w3.org/2000/svg" xmlns:xlink="http://www.w3.org/1999/xlink" xml:space="preserve" xmlns:serif="http://www.serif.com/" style="fill-rule:evenodd;clip-rule:evenodd;stroke-linejoin:round;stroke-miterlimit:2;">
    <g transform="matrix(1.86451,0,0,1.86451,-349.515,-1202.1)">
        <path d="M204.561,664.268L189.547,669.603C188.978,669.806 188.99,670.615 189.565,670.799L204.527,675.594C204.561,675.604 204.595,675.604 204.629,675.609L204.629,664.256C204.607,664.262 204.583,664.26 204.561,664.268Z" style="fill:rgb(205,119,124);fill-rule:nonzero;"/>
    </g>
    <g transform="matrix(1.86451,0,0,1.86451,-349.515,-1202.1)">
        <path d="M219.697,669.603L204.988,664.269C204.872,664.227 204.749,664.228 204.629,664.256L204.629,675.609C204.725,675.624 204.822,675.623 204.915,675.593L219.677,670.797C220.248,670.611 220.261,669.808 219.697,669.603Z" style="fill:rgb(188,110,113);fill-rule:nonzero;"/>
    </g>
    <g transform="matrix(1.86451,0,0,1.86451,-349.515,-1202.1)">
        <path d="M204.561,658.423L189.547,663.758C188.978,663.96 188.99,664.769 189.565,664.954L204.527,669.748C204.561,669.759 204.595,669.759 204.629,669.765L204.629,658.411C204.607,658.416 204.583,658.415 204.561,658.423Z" style="fill:rgb(121,174,174);fill-rule:nonzero;"/>
    </g>
    <g transform="matrix(1.86451,0,0,1.86451,-349.515,-1202.1)">
        <path d="M219.697,663.758L204.988,658.424C204.872,658.382 204.749,658.383 204.629,658.411L204.629,669.765C204.725,669.778 204.822,669.777 204.915,669.748L219.677,664.951C220.248,664.766 220.261,663.963 219.697,663.758Z" style="fill:rgb(102,146,146);fill-rule:nonzero;"/>
    </g>
    <g transform="matrix(1.86451,0,0,1.86451,-349.515,-1202.1)">
        <path d="M204.561,648.197L189.547,653.533C188.978,653.735 188.99,654.544 189.565,654.728L204.527,659.523C204.561,659.534 204.595,659.534 204.629,659.539L204.629,648.185C204.607,648.19 204.583,648.189 204.561,648.197Z" style="fill:rgb(240,237,226);fill-rule:nonzero;"/>
    </g>
    <g transform="matrix(1.86451,0,0,1.86451,-349.515,-1202.1)">
        <path d="M219.697,653.532L204.988,648.198C204.872,648.156 204.749,648.157 204.629,648.185L204.629,659.539C204.725,659.553 204.822,659.553 204.915,659.522L219.677,654.726C220.248,654.54 220.261,653.737 219.697,653.532Z" style="fill:rgb(216,213,202);fill-rule:nonzero;"/>
    </g>
    <g transform="matrix(1.86451,0,0,1.86451,-349.515,-1202.1)">
        <path d="M219.697,657.924L204.988,652.59C204.872,652.548 204.749,652.549 204.629,652.576L204.629,663.93C204.725,663.944 204.822,663.943 204.915,663.913L219.677,659.117C220.248,658.932 220.261,658.128 219.697,657.924Z" style="fill:rgb(208,174,94);fill-rule:nonzero;"/>
    </g>
    <g transform="matrix(1.86451,0,0,1.86451,-349.515,-1202.1)">
        <path d="M204.561,652.588L189.547,657.924C188.978,658.126 188.99,658.935 189.565,659.119L204.527,663.914C204.561,663.925 204.595,663.925 204.629,663.93L204.629,652.576C204.607,652.582 204.583,652.58 204.561,652.588Z" style="fill:rgb(234,196,105);fill-rule:nonzero;"/>
    </g>
    <g transform="matrix(1.86451,0,0,1.86451,-349.515,-1202.1)">
        <path d="M204.561,648.197L189.547,653.533C188.978,653.735 188.99,654.544 189.565,654.728L204.527,659.523C204.561,659.534 204.595,659.534 204.629,659.539L204.629,648.185C204.607,648.19 204.583,648.189 204.561,648.197Z" style="fill:rgb(240,237,226);fill-rule:nonzero;"/>
    </g>
    <g transform="matrix(1.86451,0,0,1.86451,-349.515,-1202.1)">
        <path d="M219.697,653.532L204.988,648.198C204.872,648.156 204.749,648.157 204.629,648.185L204.629,659.539C204.725,659.553 204.822,659.553 204.915,659.522L219.677,654.726C220.248,654.54 220.261,653.737 219.697,653.532Z" style="fill:rgb(216,213,202);fill-rule:nonzero;"/>
    </g>
</svg>
