<?xml version="1.0" encoding="UTF-8" standalone="no"?>
<!DOCTYPE svg PUBLIC "-//W3C//DTD SVG 1.1//EN" "http://www.w3.org/Graphics/SVG/1.1/DTD/svg11.dtd">
<svg width="100%" height="100%" viewBox="0 0 64 64" version="1.1" xmlns="http://www.w3.org/2000/svg" xmlns:xlink="http://www.w3.org/1999/xlink" xml:space="preserve" xmlns:serif="http://www.serif.com/" style="fill-rule:evenodd;clip-rule:evenodd;stroke-linejoin:round;stroke-miterlimit:2;">
    <g transform="matrix(1.77964,0,0,1.77964,-1720.81,-82.8856)">
        <path d="M984.922,48.954C976.306,48.954 969.321,55.938 969.321,64.555C969.321,73.171 976.306,80.157 984.922,80.157C984.946,80.157 984.971,80.155 984.995,80.155L984.995,48.956C984.971,48.956 984.946,48.954 984.922,48.954Z" style="fill:rgb(126,188,187);fill-rule:nonzero;"/>
    </g>
    <g transform="matrix(1.77964,0,0,1.77964,-1720.81,-82.8856)">
        <path d="M1000.52,64.555C1000.52,55.963 993.578,48.995 984.995,48.956L984.995,80.155C993.578,80.116 1000.52,73.147 1000.52,64.555Z" style="fill:rgb(88,130,129);fill-rule:nonzero;"/>
    </g>
    <g transform="matrix(1.77964,0,0,1.77964,-1720.81,-82.8856)">
        <path d="M984.344,56.714C982.965,56.701 981.785,56.597 980.818,56.46C981.983,54.327 983.394,53.79 983.433,53.775C983.477,53.761 983.518,53.741 983.557,53.717C983.816,53.685 984.079,53.664 984.344,53.649L984.344,56.714ZM984.344,63.946L979.291,63.946C979.273,61.078 979.724,58.996 980.333,57.491C981.404,57.657 982.745,57.788 984.344,57.802L984.344,63.946ZM984.344,71.252C982.945,71.282 981.755,71.399 980.77,71.548C980.091,70.069 979.475,67.967 979.326,65.103L984.344,65.103L984.344,71.252ZM984.344,75.402C984.174,75.393 984.005,75.382 983.837,75.365C983.792,75.315 983.741,75.271 983.681,75.236C983.67,75.23 982.59,74.606 981.516,72.924C981.445,72.814 981.375,72.696 981.303,72.574C982.165,72.457 983.179,72.367 984.344,72.341L984.344,75.402ZM978.35,73.205C978.723,73.087 979.266,72.938 979.975,72.796C980.424,73.634 980.899,74.298 981.339,74.812C980.255,74.433 979.248,73.887 978.35,73.205ZM974.043,65.103L978.06,65.103C978.197,67.952 978.771,70.133 979.485,71.782C978.334,72.029 977.634,72.289 977.392,72.387C975.451,70.529 974.193,67.962 974.043,65.103ZM977.292,56.756C977.507,56.837 978.101,57.045 979.058,57.254C978.443,58.883 978.013,61.053 978.029,63.946L974.044,63.946C974.191,61.14 975.406,58.609 977.292,56.756ZM980.544,54.55C980.185,55.004 979.828,55.561 979.498,56.232C978.972,56.123 978.553,56.013 978.245,55.923C978.948,55.376 979.719,54.913 980.544,54.55ZM984.845,52.269C978.087,52.311 972.624,57.843 972.667,64.602C972.709,71.33 978.194,76.773 984.912,76.778L984.912,52.27C984.89,52.27 984.867,52.269 984.845,52.269Z" style="fill:rgb(240,237,226);fill-rule:nonzero;"/>
    </g>
    <g transform="matrix(1.77964,0,0,1.77964,-1720.81,-82.8856)">
        <path d="M992.55,72.293C992.319,72.21 991.601,71.969 990.439,71.739C991.13,70.096 991.678,67.926 991.787,65.103L995.801,65.103C995.653,67.91 994.437,70.44 992.55,72.293ZM988.635,74.766C989.063,74.252 989.525,73.591 989.96,72.759C990.659,72.889 991.208,73.025 991.59,73.133C990.703,73.821 989.708,74.376 988.635,74.766ZM988.435,72.88C987.382,74.576 986.31,75.213 986.302,75.218C986.239,75.253 986.187,75.3 986.143,75.351C985.93,75.374 985.716,75.391 985.5,75.402L985.5,72.337C986.687,72.354 987.736,72.439 988.629,72.552C988.563,72.667 988.498,72.777 988.435,72.88ZM985.5,65.103L990.521,65.103C990.402,67.95 989.81,70.044 989.149,71.521C988.137,71.378 986.916,71.268 985.5,71.248L985.5,65.103ZM985.5,57.792C987.063,57.75 988.38,57.602 989.435,57.423C990.058,58.92 990.528,61 990.546,63.885C990.547,63.906 990.546,63.925 990.546,63.946L985.5,63.946L985.5,57.792ZM985.5,53.646C985.72,53.658 985.937,53.677 986.153,53.701C986.193,53.725 986.235,53.745 986.282,53.759C986.307,53.767 987.742,54.255 988.941,56.399C987.994,56.546 986.843,56.666 985.5,56.703L985.5,53.646ZM991.486,55.837C991.181,55.93 990.764,56.043 990.241,56.157C989.904,55.492 989.539,54.945 989.175,54.495C990.003,54.848 990.778,55.3 991.486,55.837ZM995.801,63.946L991.808,63.946L991.808,63.877C991.789,60.973 991.331,58.798 990.694,57.173C991.652,56.952 992.245,56.74 992.453,56.66C994.393,58.518 995.65,61.086 995.801,63.946ZM984.912,52.27L984.912,76.778C984.941,76.778 984.97,76.78 984.999,76.78C991.757,76.737 997.221,71.205 997.178,64.447C997.136,57.712 991.64,52.264 984.912,52.27Z" style="fill:rgb(216,213,202);fill-rule:nonzero;"/>
    </g>
    <g transform="matrix(1.77964,0,0,1.77964,-1720.81,-82.8856)">
        <path d="M980.116,60.715C980.116,61.436 979.531,62.021 978.81,62.021C978.089,62.021 977.504,61.436 977.504,60.715C977.504,59.994 978.089,59.409 978.81,59.409C979.531,59.409 980.116,59.994 980.116,60.715Z" style="fill:rgb(196,97,105);fill-rule:nonzero;"/>
    </g>
    <g transform="matrix(1.77964,0,0,1.77964,-1720.81,-82.8856)">
        <path d="M994.586,56.952C995.308,56.952 995.892,57.537 995.892,58.258C995.892,58.98 995.308,59.564 994.586,59.564C993.864,59.564 993.279,58.98 993.279,58.258C993.279,57.537 993.864,56.952 994.586,56.952Z" style="fill:rgb(199,162,79);fill-rule:nonzero;"/>
    </g>
    <g transform="matrix(1.77964,0,0,1.77964,-1720.81,-82.8856)">
        <path d="M976.304,70.538C976.304,71.26 975.719,71.845 974.997,71.845C974.275,71.845 973.69,71.26 973.69,70.538C973.69,69.817 974.275,69.232 974.997,69.232C975.719,69.232 976.304,69.817 976.304,70.538Z" style="fill:rgb(230,186,89);fill-rule:nonzero;"/>
    </g>
    <g transform="matrix(1.77964,0,0,1.77964,-1720.81,-82.8856)">
        <path d="M990.726,67.198C991.447,67.198 992.031,67.783 992.031,68.504C992.031,69.226 991.447,69.811 990.726,69.811C990.004,69.811 989.419,69.226 989.419,68.504C989.419,67.783 990.004,67.198 990.726,67.198Z" style="fill:rgb(175,88,95);fill-rule:nonzero;"/>
    </g>
</svg>
