<?xml version="1.0" encoding="UTF-8" standalone="no"?>
<!DOCTYPE svg PUBLIC "-//W3C//DTD SVG 1.1//EN" "http://www.w3.org/Graphics/SVG/1.1/DTD/svg11.dtd">
<svg width="100%" height="100%" viewBox="0 0 64 64" version="1.1" xmlns="http://www.w3.org/2000/svg" xmlns:xlink="http://www.w3.org/1999/xlink" xml:space="preserve" xmlns:serif="http://www.serif.com/" style="fill-rule:evenodd;clip-rule:evenodd;stroke-linejoin:round;stroke-miterlimit:2;">
    <g transform="matrix(1.92226,0,0,1.92226,-1486.29,-602.42)">
        <path d="M783.818,322.604L777.405,324.688L774.245,341.794L782.351,338.541L789.838,341.787L789.838,341.794L789.847,341.791L789.855,341.794L789.855,341.787L797.343,338.541L805.448,341.794L802.289,324.688L795.875,322.604L795.875,322.6L795.87,322.602L795.864,322.6L795.865,322.604L789.847,324.684L783.829,322.604L783.829,322.6L783.823,322.602L783.818,322.6L783.818,322.604Z" style="fill:rgb(234,196,105);fill-rule:nonzero;"/>
    </g>
    <g transform="matrix(1.92226,0,0,1.92226,-1486.29,-602.42)">
        <path d="M795.796,323.02L802.088,324.992L804.628,340.487L796.988,337.625L795.796,323.02Z" style="fill:rgb(102,146,146);fill-rule:nonzero;"/>
    </g>
    <g transform="matrix(1.92226,0,0,1.92226,-1486.29,-602.42)">
        <path d="M795.806,323.02L789.837,324.992L789.839,340.487L797.009,337.625L795.806,323.02Z" style="fill:rgb(121,174,174);fill-rule:nonzero;"/>
    </g>
    <g transform="matrix(1.92226,0,0,1.92226,-1486.29,-602.42)">
        <path d="M783.888,323.02L789.856,324.992L789.854,340.487L782.685,337.625L783.888,323.02Z" style="fill:rgb(102,146,146);fill-rule:nonzero;"/>
    </g>
    <g transform="matrix(1.92226,0,0,1.92226,-1486.29,-602.42)">
        <path d="M783.897,323.02L777.605,324.992L775.065,340.487L782.705,337.625L783.897,323.02Z" style="fill:rgb(121,174,174);fill-rule:nonzero;"/>
    </g>
    <g transform="matrix(1.92226,0,0,1.92226,-1486.29,-602.42)">
        <path d="M789.847,318.282C787.775,318.282 786.096,320.21 786.096,322.589C786.096,322.976 786.141,323.35 786.225,323.707L786.244,323.791C786.269,323.881 786.426,324.225 786.592,324.556L786.734,324.839C786.9,325.169 787.172,325.709 787.338,326.04L787.704,326.768C787.87,327.098 788.142,327.639 788.308,327.969L789.545,330.429C789.628,330.594 789.737,330.677 789.847,330.677C789.956,330.677 790.065,330.594 790.148,330.429L791.386,327.969C791.552,327.639 791.823,327.098 791.989,326.768L792.355,326.04C792.521,325.709 792.793,325.169 792.959,324.839L793.102,324.556C793.268,324.225 793.424,323.881 793.449,323.791L793.469,323.707C793.553,323.35 793.598,322.976 793.598,322.589C793.598,320.21 791.918,318.282 789.847,318.282Z" style="fill:rgb(205,119,124);fill-rule:nonzero;"/>
    </g>
    <g transform="matrix(1.92226,0,0,1.92226,-1486.29,-602.42)">
        <path d="M789.847,318.282L789.847,319.789C791.056,319.789 792.036,320.77 792.036,321.979C792.036,323.188 791.056,324.168 789.847,324.168L789.847,330.677C789.956,330.677 790.065,330.594 790.148,330.429L791.386,327.969C791.552,327.639 791.823,327.098 791.989,326.768L792.355,326.04C792.521,325.709 792.793,325.169 792.959,324.839L793.102,324.556C793.268,324.225 793.424,323.881 793.449,323.791L793.469,323.707C793.553,323.35 793.598,322.976 793.598,322.589C793.598,320.21 791.918,318.282 789.847,318.282Z" style="fill:rgb(188,110,113);fill-rule:nonzero;"/>
    </g>
    <g transform="matrix(1.92226,0,0,1.92226,-1486.29,-602.42)">
        <path d="M792.036,321.979C792.036,320.77 791.056,319.789 789.847,319.789L789.847,324.168C791.056,324.168 792.036,323.188 792.036,321.979Z" style="fill:rgb(199,162,79);fill-rule:nonzero;"/>
    </g>
    <g transform="matrix(1.92226,0,0,1.92226,-1486.29,-602.42)">
        <path d="M787.657,321.979C787.657,323.188 788.638,324.168 789.847,324.168L789.847,319.789C788.638,319.789 787.657,320.77 787.657,321.979Z" style="fill:rgb(230,186,89);fill-rule:nonzero;"/>
    </g>
</svg>
