<?xml version="1.0" encoding="UTF-8" standalone="no"?>
<!DOCTYPE svg PUBLIC "-//W3C//DTD SVG 1.1//EN" "http://www.w3.org/Graphics/SVG/1.1/DTD/svg11.dtd">
<svg width="100%" height="100%" viewBox="0 0 64 64" version="1.1" xmlns="http://www.w3.org/2000/svg" xmlns:xlink="http://www.w3.org/1999/xlink" xml:space="preserve" xmlns:serif="http://www.serif.com/" style="fill-rule:evenodd;clip-rule:evenodd;stroke-linejoin:round;stroke-miterlimit:2;">
    <g transform="matrix(1.60617,0,0,1.60617,-296.654,-178.288)">
        <path d="M209.77,131.001C211.913,129.419 213.31,126.883 213.31,124.014C213.31,119.214 209.419,115.324 204.62,115.324C199.82,115.324 195.93,119.214 195.93,124.014C195.93,126.883 197.327,129.419 199.47,131.001C195.755,132.453 193.122,136.064 193.122,140.293L193.122,146.527L216.118,146.527L216.118,140.293C216.118,136.064 213.485,132.453 209.77,131.001Z" style="fill:rgb(240,237,226);fill-rule:nonzero;"/>
    </g>
    <g transform="matrix(1.60617,0,0,1.60617,-296.654,-178.288)">
        <path d="M204.62,118.939C204.62,118.939 206.662,122.797 213.217,122.81C212.629,118.582 209.01,115.324 204.62,115.324C200.23,115.324 196.611,118.582 196.023,122.81C196.198,122.811 202.532,122.834 204.62,118.939Z" style="fill:rgb(196,97,105);fill-rule:nonzero;"/>
    </g>
    <g transform="matrix(1.60617,0,0,1.60617,-296.654,-178.288)">
        <path d="M209.77,131.001C211.913,129.419 213.31,126.883 213.31,124.014C213.31,119.214 209.419,115.324 204.62,115.324C204.597,115.324 204.575,115.326 204.553,115.328L204.553,146.527L216.118,146.527L216.118,140.293C216.118,136.064 213.485,132.453 209.77,131.001Z" style="fill:rgb(221,219,208);fill-rule:nonzero;"/>
    </g>
    <g transform="matrix(1.60617,0,0,1.60617,-296.654,-178.288)">
        <path d="M204.62,115.324C204.597,115.324 204.575,115.326 204.553,115.327L204.553,119.054C204.576,119.016 204.599,118.979 204.62,118.939C204.62,118.939 206.662,122.797 213.217,122.81C212.629,118.582 209.01,115.324 204.62,115.324Z" style="fill:rgb(175,88,95);fill-rule:nonzero;"/>
    </g>
</svg>
