<?xml version="1.0" encoding="UTF-8" standalone="no"?>
<!DOCTYPE svg PUBLIC "-//W3C//DTD SVG 1.1//EN" "http://www.w3.org/Graphics/SVG/1.1/DTD/svg11.dtd">
<svg width="100%" height="100%" viewBox="0 0 64 64" version="1.1" xmlns="http://www.w3.org/2000/svg" xmlns:xlink="http://www.w3.org/1999/xlink" xml:space="preserve" xmlns:serif="http://www.serif.com/" style="fill-rule:evenodd;clip-rule:evenodd;stroke-linejoin:round;stroke-miterlimit:2;">
    <g transform="matrix(1.90846,0,0,1.90846,-358.51,-1991.19)">
        <path d="M199.184,1072.28C199.364,1072.46 199.364,1072.75 199.184,1072.93L196.606,1075.51C196.426,1075.69 196.133,1075.69 195.952,1075.51C195.772,1075.33 195.772,1075.04 195.952,1074.86L198.53,1072.28C198.71,1072.1 199.003,1072.1 199.184,1072.28Z" style="fill:rgb(57,58,59);fill-rule:nonzero;"/>
    </g>
    <g transform="matrix(1.90846,0,0,1.90846,-358.51,-1991.19)">
        <path d="M210.056,1072.28C210.236,1072.1 210.529,1072.1 210.71,1072.28L213.288,1074.86C213.468,1075.04 213.468,1075.33 213.288,1075.51C213.107,1075.69 212.814,1075.69 212.633,1075.51L210.056,1072.93C209.875,1072.75 209.875,1072.46 210.056,1072.28Z" style="fill:rgb(57,58,59);fill-rule:nonzero;"/>
    </g>
    <g transform="matrix(1.90846,0,0,1.90846,-358.51,-1991.19)">
        <path d="M209.251,1051.75C209.251,1054.31 207.178,1056.38 204.62,1056.38C202.062,1056.38 199.989,1054.31 199.989,1051.75C199.989,1049.19 202.062,1047.12 204.62,1047.12C207.178,1047.12 209.251,1049.19 209.251,1051.75Z" style="fill:rgb(234,196,105);fill-rule:nonzero;"/>
    </g>
    <g transform="matrix(1.90846,0,0,1.90846,-358.51,-1991.19)">
        <path d="M218.624,1053.14C218.624,1051.7 217.457,1050.53 216.017,1050.53L193.223,1050.53C191.783,1050.53 190.616,1051.7 190.616,1053.14L190.616,1061.44L218.624,1061.44L218.624,1053.14Z" style="fill:rgb(78,79,81);fill-rule:nonzero;"/>
    </g>
    <g transform="matrix(1.90846,0,0,1.90846,-358.51,-1991.19)">
        <path d="M190.616,1061.44L190.616,1070.53C190.616,1071.96 191.783,1073.13 193.223,1073.13L216.017,1073.13C217.457,1073.13 218.624,1071.96 218.624,1070.53L218.624,1061.44L190.616,1061.44Z" style="fill:rgb(57,58,59);fill-rule:nonzero;"/>
    </g>
    <g transform="matrix(1.90846,0,0,1.90846,-358.51,-1991.19)">
        <path d="M195.281,1053.68C194.351,1053.68 193.597,1054.52 193.597,1055.55L193.597,1068.06C193.597,1069.09 194.351,1069.93 195.281,1069.93L202.688,1069.93L202.688,1053.68L195.281,1053.68Z" style="fill:rgb(121,174,174);fill-rule:nonzero;"/>
    </g>
    <g transform="matrix(1.90846,0,0,1.90846,-358.51,-1991.19)">
        <path d="M210.001,1053.68L202.688,1053.68L202.688,1069.93L210.001,1069.93C210.931,1069.93 211.685,1069.09 211.685,1068.06L211.685,1055.55C211.685,1054.52 210.931,1053.68 210.001,1053.68Z" style="fill:rgb(102,146,146);fill-rule:nonzero;"/>
    </g>
    <g transform="matrix(1.90846,0,0,1.90846,-358.51,-1991.19)">
        <path d="M216.395,1056.48C216.395,1057.08 215.911,1057.57 215.312,1057.57C214.714,1057.57 214.229,1057.08 214.229,1056.48C214.229,1055.88 214.714,1055.4 215.312,1055.4C215.911,1055.4 216.395,1055.88 216.395,1056.48Z" style="fill:rgb(234,196,105);fill-rule:nonzero;"/>
    </g>
    <g transform="matrix(1.90846,0,0,1.90846,-358.51,-1991.19)">
        <path d="M216.395,1059.24C216.395,1059.84 215.911,1060.32 215.312,1060.32C214.714,1060.32 214.229,1059.84 214.229,1059.24C214.229,1058.64 214.714,1058.16 215.312,1058.16C215.911,1058.16 216.395,1058.64 216.395,1059.24Z" style="fill:rgb(196,97,105);fill-rule:nonzero;"/>
    </g>
    <g transform="matrix(1.90846,0,0,1.90846,-358.51,-1991.19)">
        <path d="M216.395,1061.99C216.395,1062.59 215.911,1063.08 215.312,1063.08C214.714,1063.08 214.229,1062.59 214.229,1061.99C214.229,1061.4 214.714,1060.91 215.312,1060.91C215.911,1060.91 216.395,1061.4 216.395,1061.99Z" style="fill:rgb(121,174,174);fill-rule:nonzero;"/>
    </g>
    <g transform="matrix(1.90846,0,0,1.90846,-358.51,-1991.19)">
        <path d="M217.677,1064.72C217.677,1064.92 217.509,1065.09 217.303,1065.09L213.337,1065.09C213.131,1065.09 212.964,1064.92 212.964,1064.72C212.964,1064.51 213.131,1064.34 213.337,1064.34L217.303,1064.34C217.509,1064.34 217.677,1064.51 217.677,1064.72Z" style="fill:rgb(78,79,81);fill-rule:nonzero;"/>
    </g>
    <g transform="matrix(1.90846,0,0,1.90846,-358.51,-1991.19)">
        <path d="M217.677,1066.35C217.677,1066.56 217.509,1066.72 217.303,1066.72L213.337,1066.72C213.131,1066.72 212.964,1066.56 212.964,1066.35C212.964,1066.15 213.131,1065.98 213.337,1065.98L217.303,1065.98C217.509,1065.98 217.677,1066.15 217.677,1066.35Z" style="fill:rgb(78,79,81);fill-rule:nonzero;"/>
    </g>
    <g transform="matrix(1.90846,0,0,1.90846,-358.51,-1991.19)">
        <path d="M217.677,1067.98C217.677,1068.19 217.509,1068.36 217.303,1068.36L213.337,1068.36C213.131,1068.36 212.964,1068.19 212.964,1067.98C212.964,1067.78 213.131,1067.61 213.337,1067.61L217.303,1067.61C217.509,1067.61 217.677,1067.78 217.677,1067.98Z" style="fill:rgb(78,79,81);fill-rule:nonzero;"/>
    </g>
    <g transform="matrix(1.90846,0,0,1.90846,-358.51,-1991.19)">
        <path d="M202.731,1049.12C202.801,1049.19 202.725,1049.38 202.56,1049.54C202.395,1049.71 202.206,1049.79 202.136,1049.71L197.629,1045.21C197.559,1045.14 197.636,1044.95 197.8,1044.78C197.964,1044.62 198.154,1044.54 198.224,1044.61L202.731,1049.12Z" style="fill:rgb(78,79,81);fill-rule:nonzero;"/>
    </g>
    <g transform="matrix(1.90846,0,0,1.90846,-358.51,-1991.19)">
        <path d="M207.104,1049.71C207.034,1049.79 206.844,1049.71 206.68,1049.54C206.515,1049.38 206.438,1049.19 206.508,1049.12L211.016,1044.61C211.085,1044.54 211.275,1044.62 211.44,1044.78C211.604,1044.95 211.681,1045.14 211.611,1045.21L207.104,1049.71Z" style="fill:rgb(78,79,81);fill-rule:nonzero;"/>
    </g>
    <g transform="matrix(1.90846,0,0,1.90846,-358.51,-1991.19)">
        <path d="M198.774,1055.41C198.265,1055.11 197.629,1055.48 197.629,1056.07L197.629,1067.86C197.629,1068.45 198.265,1068.82 198.774,1068.52L202.607,1066.31L202.607,1057.62L198.774,1055.41Z" style="fill:rgb(240,237,226);fill-rule:nonzero;"/>
    </g>
    <g transform="matrix(1.90846,0,0,1.90846,-358.51,-1991.19)">
        <path d="M208.988,1061.3L203.881,1058.36L202.607,1057.62L202.607,1066.31L203.881,1065.58L208.988,1062.63C209.249,1062.48 209.374,1062.21 209.367,1061.95C209.36,1061.7 209.235,1061.45 208.988,1061.3Z" style="fill:rgb(221,219,208);fill-rule:nonzero;"/>
    </g>
</svg>
