<?xml version="1.0" encoding="UTF-8" standalone="no"?>
<!DOCTYPE svg PUBLIC "-//W3C//DTD SVG 1.1//EN" "http://www.w3.org/Graphics/SVG/1.1/DTD/svg11.dtd">
<svg width="100%" height="100%" viewBox="0 0 64 64" version="1.1" xmlns="http://www.w3.org/2000/svg" xmlns:xlink="http://www.w3.org/1999/xlink" xml:space="preserve" xmlns:serif="http://www.serif.com/" style="fill-rule:evenodd;clip-rule:evenodd;stroke-linejoin:round;stroke-miterlimit:2;">
    <path d="M32.626,3.926C48.12,3.926 60.699,16.505 60.699,31.999C60.699,47.493 48.12,60.072 32.626,60.072C17.132,60.072 4.553,47.493 4.553,31.999C4.553,16.505 17.132,3.926 32.626,3.926ZM32.626,8.624C32.409,8.619 32.209,8.61 32.01,8.61C19.09,8.61 8.619,19.082 8.619,32.001C8.619,44.919 19.09,55.392 32.01,55.392C32.209,55.392 32.409,55.381 32.626,55.376C45.255,55.049 55.401,44.713 55.401,32.001C55.401,19.287 45.255,8.951 32.626,8.624Z" style="fill:rgb(57,58,59);"/>
    <g transform="matrix(1.81185,0,0,1.81185,-1870.34,-1287.5)">
        <path d="M1041.77,718.474C1043.99,716.621 1046.83,715.377 1049.94,715.377C1050.02,715.377 1050.09,715.382 1050.17,715.383L1050.18,712.776C1050.1,712.774 1050.03,712.769 1049.95,712.769C1041.4,712.769 1034.45,719.72 1034.45,728.263C1034.45,736.806 1041.4,743.756 1049.95,743.756C1050.03,743.756 1050.1,743.751 1050.18,743.75L1050.17,741.186C1050.09,741.186 1050.02,741.19 1049.94,741.19C1042.9,741.19 1037.19,735.299 1037.19,728.263C1037.19,725.317 1038.19,722.603 1039.88,720.441L1041.77,718.474Z" style="fill:rgb(78,79,81);fill-rule:nonzero;"/>
    </g>
</svg>
