<?xml version="1.0" encoding="UTF-8" standalone="no"?>
<!DOCTYPE svg PUBLIC "-//W3C//DTD SVG 1.1//EN" "http://www.w3.org/Graphics/SVG/1.1/DTD/svg11.dtd">
<svg width="100%" height="100%" viewBox="0 0 64 64" version="1.1" xmlns="http://www.w3.org/2000/svg" xmlns:xlink="http://www.w3.org/1999/xlink" xml:space="preserve" xmlns:serif="http://www.serif.com/" style="fill-rule:evenodd;clip-rule:evenodd;stroke-linejoin:round;stroke-miterlimit:2;">
    <g transform="matrix(1.88494,0,0,1.88494,-1701.95,-840.311)">
        <path d="M910.446,464.093C910.071,464.093 909.768,464.396 909.768,464.771L909.768,475.75C909.768,476.125 910.071,476.429 910.446,476.429L910.79,476.429L910.79,464.093L910.446,464.093Z" style="fill:rgb(78,79,81);fill-rule:nonzero;"/>
    </g>
    <g transform="matrix(1.88494,0,0,1.88494,-1701.95,-840.311)">
        <path d="M911.099,464.093L910.79,464.093L910.79,476.429L911.099,476.429C911.474,476.429 911.776,476.125 911.776,475.75L911.776,464.771C911.776,464.396 911.474,464.093 911.099,464.093Z" style="fill:rgb(64,64,66);fill-rule:nonzero;"/>
    </g>
    <g transform="matrix(1.88494,0,0,1.88494,-1701.95,-840.311)">
        <path d="M910.42,454.194L907.212,459.751C907.077,459.983 907.245,460.273 907.513,460.273L908.208,460.273L905.662,464.682C905.47,465.016 905.711,465.434 906.097,465.434L906.739,465.434L904.488,469.334C904.25,469.746 904.548,470.261 905.023,470.261L910.722,470.261L910.722,454.02C910.604,454.02 910.487,454.078 910.42,454.194Z" style="fill:rgb(126,188,187);fill-rule:nonzero;"/>
    </g>
    <g transform="matrix(1.88494,0,0,1.88494,-1701.95,-840.311)">
        <path d="M916.955,469.334L914.703,465.434L915.347,465.434C915.732,465.434 915.974,465.016 915.78,464.682L913.235,460.273L913.93,460.273C914.198,460.273 914.365,459.983 914.231,459.751L911.022,454.194C910.956,454.078 910.839,454.02 910.722,454.02L910.722,470.261L910.79,470.261L910.79,467.468L910.79,470.261L916.42,470.261C916.895,470.261 917.193,469.746 916.955,469.334Z" style="fill:rgb(88,130,129);fill-rule:nonzero;"/>
    </g>
    <g transform="matrix(1.88494,0,0,1.88494,-1701.95,-840.311)">
        <path d="M928.797,464.093C928.423,464.093 928.119,464.396 928.119,464.771L928.119,475.75C928.119,476.125 928.423,476.429 928.797,476.429L929.142,476.429L929.142,464.093L928.797,464.093Z" style="fill:rgb(78,79,81);fill-rule:nonzero;"/>
    </g>
    <g transform="matrix(1.88494,0,0,1.88494,-1701.95,-840.311)">
        <path d="M929.45,464.093L929.142,464.093L929.142,476.429L929.45,476.429C929.824,476.429 930.128,476.125 930.128,475.75L930.128,464.771C930.128,464.396 929.824,464.093 929.45,464.093Z" style="fill:rgb(64,64,66);fill-rule:nonzero;"/>
    </g>
    <g transform="matrix(1.88494,0,0,1.88494,-1701.95,-840.311)">
        <path d="M928.771,454.194L925.562,459.751C925.429,459.983 925.597,460.273 925.864,460.273L926.559,460.273L924.014,464.682C923.82,465.016 924.061,465.434 924.448,465.434L925.091,465.434L922.839,469.334C922.602,469.746 922.898,470.261 923.374,470.261L929.072,470.261L929.072,454.02C928.955,454.02 928.839,454.078 928.771,454.194Z" style="fill:rgb(126,188,187);fill-rule:nonzero;"/>
    </g>
    <g transform="matrix(1.88494,0,0,1.88494,-1701.95,-840.311)">
        <path d="M935.307,469.334L933.055,465.434L933.697,465.434C934.083,465.434 934.325,465.016 934.132,464.682L931.587,460.273L932.281,460.273C932.549,460.273 932.717,459.983 932.583,459.751L929.374,454.194C929.307,454.078 929.189,454.02 929.072,454.02L929.072,470.261L929.142,470.261L929.142,467.468L929.142,470.261L934.771,470.261C935.247,470.261 935.544,469.746 935.307,469.334Z" style="fill:rgb(88,130,129);fill-rule:nonzero;"/>
    </g>
    <g transform="matrix(1.88494,0,0,1.88494,-1701.95,-840.311)">
        <path d="M919.241,460.379C918.754,460.379 918.359,460.774 918.359,461.262L918.359,475.546C918.359,476.034 918.754,476.429 919.241,476.429L919.688,476.429L919.688,460.379L919.241,460.379Z" style="fill:rgb(78,79,81);fill-rule:nonzero;"/>
    </g>
    <g transform="matrix(1.88494,0,0,1.88494,-1701.95,-840.311)">
        <path d="M920.09,460.379L919.688,460.379L919.688,476.429L920.09,476.429C920.577,476.429 920.973,476.034 920.973,475.546L920.973,461.262C920.973,460.774 920.577,460.379 920.09,460.379Z" style="fill:rgb(64,64,66);fill-rule:nonzero;"/>
    </g>
    <g transform="matrix(1.88494,0,0,1.88494,-1701.95,-840.311)">
        <path d="M919.207,449.357L915.033,456.587C914.858,456.889 915.076,457.267 915.425,457.267L916.329,457.267L913.018,463.002C912.767,463.437 913.08,463.98 913.583,463.98L914.419,463.98L911.489,469.055C911.18,469.591 911.566,470.261 912.185,470.261L919.6,470.261L919.6,449.131C919.447,449.131 919.295,449.206 919.207,449.357Z" style="fill:rgb(126,188,187);fill-rule:nonzero;"/>
    </g>
    <g transform="matrix(1.88494,0,0,1.88494,-1701.95,-840.311)">
        <path d="M927.71,469.055L924.78,463.98L925.616,463.98C926.119,463.98 926.433,463.437 926.182,463.002L922.87,457.267L923.774,457.267C924.122,457.267 924.34,456.889 924.166,456.587L919.991,449.357C919.904,449.206 919.752,449.131 919.6,449.131L919.6,470.261L919.688,470.261L919.688,466.627L919.688,470.261L927.014,470.261C927.632,470.261 928.019,469.591 927.71,469.055Z" style="fill:rgb(88,130,129);fill-rule:nonzero;"/>
    </g>
</svg>
