<?xml version="1.0" encoding="UTF-8" standalone="no"?>
<!DOCTYPE svg PUBLIC "-//W3C//DTD SVG 1.1//EN" "http://www.w3.org/Graphics/SVG/1.1/DTD/svg11.dtd">
<svg width="100%" height="100%" viewBox="0 0 64 64" version="1.1" xmlns="http://www.w3.org/2000/svg" xmlns:xlink="http://www.w3.org/1999/xlink" xml:space="preserve" xmlns:serif="http://www.serif.com/" style="fill-rule:evenodd;clip-rule:evenodd;stroke-linejoin:round;stroke-miterlimit:2;">
    <g transform="matrix(1.85065,0,0,1.85065,-1189.05,-824.444)">
        <path d="M656.529,447.287L655.425,452.228L651.151,449.515L646.531,454.135L649.244,458.409L644.304,459.513L644.305,466.046L649.244,467.15L646.531,471.425L651.152,476.044L655.426,473.331L656.53,478.272L659.654,478.272L659.654,447.287L656.529,447.287Z" style="fill:rgb(109,161,161);fill-rule:nonzero;"/>
    </g>
    <g transform="matrix(1.85065,0,0,1.85065,-1189.05,-824.444)">
        <path d="M675.289,466.045L675.288,459.512L670.348,458.408L673.061,454.134L668.44,449.515L664.166,452.228L663.062,447.287L659.654,447.287L659.654,478.272L663.063,478.271L664.167,473.332L668.441,476.044L673.061,471.424L670.348,467.15L675.289,466.045Z" style="fill:rgb(92,136,135);fill-rule:nonzero;"/>
    </g>
    <g transform="matrix(1.85065,0,0,1.85065,-1189.05,-824.444)">
        <path d="M651.938,463.21C651.938,467.502 655.381,470.984 659.654,471.061L659.654,455.36C655.381,455.436 651.938,458.918 651.938,463.21Z" style="fill:white;fill-rule:nonzero;"/>
    </g>
    <g transform="matrix(1.85065,0,0,1.85065,-1189.05,-824.444)">
        <path d="M659.796,455.353C659.748,455.353 659.702,455.359 659.654,455.36L659.654,471.061C659.702,471.062 659.748,471.067 659.796,471.067C664.136,471.067 667.653,467.55 667.653,463.21C667.653,458.871 664.136,455.353 659.796,455.353Z" style="fill:white;fill-rule:nonzero;"/>
    </g>
</svg>
