<?xml version="1.0" encoding="UTF-8" standalone="no"?>
<!DOCTYPE svg PUBLIC "-//W3C//DTD SVG 1.1//EN" "http://www.w3.org/Graphics/SVG/1.1/DTD/svg11.dtd">
<svg width="100%" height="100%" viewBox="0 0 64 64" version="1.1" xmlns="http://www.w3.org/2000/svg" xmlns:xlink="http://www.w3.org/1999/xlink" xml:space="preserve" xmlns:serif="http://www.serif.com/" style="fill-rule:evenodd;clip-rule:evenodd;stroke-linejoin:round;stroke-miterlimit:2;">
    <g transform="matrix(1.90355,0,0,1.90355,-1223.95,-1101.6)">
        <path d="M659.796,580.028C654.618,580.028 650.42,584.849 650.42,590.795C650.42,591.763 650.533,592.699 650.741,593.591L650.79,593.8C650.853,594.026 651.244,594.887 651.659,595.712L652.016,596.42C652.431,597.245 653.109,598.597 653.524,599.422L654.439,601.242C654.855,602.067 655.534,603.419 655.949,604.244L659.042,610.394C659.249,610.808 659.522,611.014 659.796,611.014C660.07,611.015 660.344,610.808 660.551,610.394L663.643,604.244C664.059,603.419 664.737,602.067 665.152,601.242L666.067,599.422C666.483,598.597 667.162,597.245 667.577,596.42L667.934,595.712C668.349,594.887 668.739,594.026 668.803,593.8L668.852,593.591C669.06,592.699 669.172,591.763 669.172,590.795C669.172,584.849 664.975,580.028 659.796,580.028Z" style="fill:rgb(126,188,187);fill-rule:nonzero;"/>
    </g>
    <g transform="matrix(1.90355,0,0,1.90355,-1223.95,-1101.6)">
        <path d="M659.796,580.028L659.796,583.797C662.819,583.797 665.27,586.247 665.27,589.27C665.27,592.294 662.819,594.744 659.796,594.744L659.796,611.014C660.07,611.015 660.344,610.808 660.551,610.394L663.643,604.244C664.059,603.419 664.737,602.067 665.152,601.242L666.067,599.422C666.483,598.597 667.162,597.245 667.577,596.42L667.934,595.712C668.349,594.887 668.739,594.026 668.803,593.8L668.852,593.591C669.06,592.699 669.172,591.763 669.172,590.795C669.172,584.849 664.975,580.028 659.796,580.028Z" style="fill:rgb(88,130,129);fill-rule:nonzero;"/>
    </g>
    <g transform="matrix(1.90355,0,0,1.90355,-1223.95,-1101.6)">
        <path d="M665.27,589.27C665.27,586.247 662.819,583.797 659.796,583.797L659.796,594.744C662.819,594.744 665.27,592.294 665.27,589.27Z" style="fill:rgb(199,162,79);fill-rule:nonzero;"/>
    </g>
    <g transform="matrix(1.90355,0,0,1.90355,-1223.95,-1101.6)">
        <path d="M654.322,589.27C654.322,592.294 656.773,594.744 659.796,594.744L659.796,583.797C656.773,583.797 654.322,586.247 654.322,589.27Z" style="fill:rgb(230,186,89);fill-rule:nonzero;"/>
    </g>
</svg>
