<?xml version="1.0" encoding="UTF-8" standalone="no"?>
<!DOCTYPE svg PUBLIC "-//W3C//DTD SVG 1.1//EN" "http://www.w3.org/Graphics/SVG/1.1/DTD/svg11.dtd">
<svg width="100%" height="100%" viewBox="0 0 64 64" version="1.1" xmlns="http://www.w3.org/2000/svg" xmlns:xlink="http://www.w3.org/1999/xlink" xml:space="preserve" xmlns:serif="http://www.serif.com/" style="fill-rule:evenodd;clip-rule:evenodd;stroke-linejoin:round;stroke-miterlimit:2;">
    <g transform="matrix(1.84682,0,0,1.84682,-1907.06,-1558.12)">
        <path d="M1052.78,861.005C1056.45,859.551 1059.11,855.46 1059.11,851.638C1059.11,850.564 1058.9,849.537 1058.51,848.59L1041.38,848.59C1041,849.537 1040.79,850.564 1040.79,851.638C1040.79,855.46 1043.44,859.551 1047.12,861.005C1043.44,862.458 1040.79,866.549 1040.79,870.371C1040.79,871.445 1041,872.472 1041.38,873.419L1058.51,873.419C1058.9,872.472 1059.11,871.445 1059.11,870.371C1059.11,866.549 1056.45,862.458 1052.78,861.005Z" style="fill:rgb(240,237,226);fill-rule:nonzero;"/>
    </g>
    <g transform="matrix(1.84682,0,0,1.84682,-1907.06,-1558.12)">
        <path d="M1039.84,848.004L1060.06,848.004C1060.95,848.004 1061.67,847.437 1061.67,846.739C1061.67,846.041 1060.95,845.475 1060.06,845.475L1039.84,845.475C1038.95,845.475 1038.22,846.041 1038.22,846.739C1038.22,847.437 1038.95,848.004 1039.84,848.004Z" style="fill:rgb(64,64,66);fill-rule:nonzero;"/>
    </g>
    <g transform="matrix(1.84682,0,0,1.84682,-1907.06,-1558.12)">
        <path d="M1039.84,845.475C1038.95,845.475 1038.22,846.041 1038.22,846.739C1038.22,847.437 1038.95,848.004 1039.84,848.004L1049.85,848.004L1049.85,845.475L1039.84,845.475Z" style="fill:rgb(78,79,81);fill-rule:nonzero;"/>
    </g>
    <g transform="matrix(1.84682,0,0,1.84682,-1907.06,-1558.12)">
        <path d="M1039.84,876.534L1060.06,876.534C1060.95,876.534 1061.67,875.969 1061.67,875.269C1061.67,874.571 1060.95,874.005 1060.06,874.005L1039.84,874.005C1038.95,874.005 1038.22,874.571 1038.22,875.269C1038.22,875.969 1038.95,876.534 1039.84,876.534Z" style="fill:rgb(64,64,66);fill-rule:nonzero;"/>
    </g>
    <g transform="matrix(1.84682,0,0,1.84682,-1907.06,-1558.12)">
        <path d="M1039.84,874.005C1038.95,874.005 1038.22,874.571 1038.22,875.269C1038.22,875.969 1038.95,876.534 1039.84,876.534L1049.85,876.534L1049.85,874.005L1039.84,874.005Z" style="fill:rgb(78,79,81);fill-rule:nonzero;"/>
    </g>
    <g transform="matrix(1.84682,0,0,1.84682,-1907.06,-1558.12)">
        <path d="M1052.78,861.005C1056.45,859.551 1059.11,855.46 1059.11,851.638C1059.11,850.564 1058.9,849.537 1058.51,848.59L1049.95,848.59L1049.95,873.419L1058.51,873.419C1058.9,872.472 1059.11,871.445 1059.11,870.371C1059.11,866.549 1056.45,862.458 1052.78,861.005Z" style="fill:rgb(221,219,208);fill-rule:nonzero;"/>
    </g>
    <g transform="matrix(1.84682,0,0,1.84682,-1907.06,-1558.12)">
        <path d="M1043.67,854.937C1043.67,857.687 1046.72,859.095 1049.24,860.141C1049.24,860.141 1049.9,867.094 1046.97,869.958C1044.04,872.836 1044.4,871.273 1044.48,872.48L1049.99,872.483L1049.99,854.937L1043.67,854.937Z" style="fill:rgb(230,186,89);fill-rule:nonzero;"/>
    </g>
    <g transform="matrix(1.84682,0,0,1.84682,-1907.06,-1558.12)">
        <path d="M1052.75,870.053C1050.07,867.367 1050.51,860.129 1050.51,860.129C1053.03,859.083 1056.22,857.687 1056.22,854.937L1049.99,854.937L1049.99,872.483L1055.19,872.486C1055.19,871.311 1055.44,872.738 1052.75,870.053Z" style="fill:rgb(199,162,79);fill-rule:nonzero;"/>
    </g>
</svg>
