<?xml version="1.0" encoding="UTF-8" standalone="no"?>
<!DOCTYPE svg PUBLIC "-//W3C//DTD SVG 1.1//EN" "http://www.w3.org/Graphics/SVG/1.1/DTD/svg11.dtd">
<svg width="100%" height="100%" viewBox="0 0 64 64" version="1.1" xmlns="http://www.w3.org/2000/svg" xmlns:xlink="http://www.w3.org/1999/xlink" xml:space="preserve" xmlns:serif="http://www.serif.com/" style="fill-rule:evenodd;clip-rule:evenodd;stroke-linejoin:round;stroke-miterlimit:2;">
    <g transform="matrix(1.90436,0,0,1.90436,-976.824,-722.904)">
        <path d="M536.368,386.314C536.368,385.958 536.079,385.668 535.721,385.668C535.67,385.668 535.621,385.675 535.574,385.686C532.843,386.416 531.043,387.813 529.856,389.281L529.856,391.744C531.727,388.186 534.998,387.156 535.788,386.955C535.883,386.929 535.946,386.917 535.962,386.914L535.966,386.914L535.966,386.913C536.202,386.816 536.368,386.585 536.368,386.314Z" style="fill:rgb(42,42,42);fill-rule:nonzero;"/>
    </g>
    <g transform="matrix(1.90436,0,0,1.90436,-976.824,-722.904)">
        <path d="M528.106,392.396L528.106,395.056C528.149,395.064 528.194,395.07 528.24,395.07C528.419,395.07 528.582,394.997 528.699,394.879C528.775,394.808 528.793,394.768 528.814,394.716C528.836,394.606 528.859,394.498 528.884,394.391C529.118,393.381 529.456,392.506 529.856,391.744L529.856,389.281C528.983,390.36 528.438,391.477 528.106,392.396Z" style="fill:rgb(28,28,29);fill-rule:nonzero;"/>
    </g>
    <g transform="matrix(1.90436,0,0,1.90436,-976.824,-722.904)">
        <path d="M520.614,391.768C517.041,391.768 514.143,394.664 514.143,398.237L514.143,400.68C514.143,404.253 517.041,407.149 520.614,407.149L529.856,407.149L529.856,391.768L520.614,391.768Z" style="fill:rgb(78,79,81);fill-rule:nonzero;"/>
    </g>
    <g transform="matrix(1.90436,0,0,1.90436,-976.824,-722.904)">
        <path d="M538.878,391.768L529.856,391.768L529.856,407.149L538.878,407.149C542.451,407.149 545.347,404.253 545.347,400.68L545.347,398.237C545.347,394.664 542.451,391.768 538.878,391.768Z" style="fill:rgb(64,64,66);fill-rule:nonzero;"/>
    </g>
    <g transform="matrix(1.90436,0,0,1.90436,-976.824,-722.904)">
        <rect x="519.323" y="398.787" width="6.24" height="1.342" style="fill:rgb(240,237,226);fill-rule:nonzero;"/>
    </g>
    <g transform="matrix(1.90436,0,0,1.90436,-976.824,-722.904)">
        <rect x="521.773" y="396.338" width="1.343" height="6.241" style="fill:rgb(240,237,226);fill-rule:nonzero;"/>
    </g>
    <g transform="matrix(1.90436,0,0,1.90436,-976.824,-722.904)">
        <path d="M535.317,397.52C535.317,398.229 534.742,398.804 534.033,398.804C533.324,398.804 532.749,398.229 532.749,397.52C532.749,396.811 533.324,396.236 534.033,396.236C534.742,396.236 535.317,396.811 535.317,397.52Z" style="fill:rgb(168,84,91);fill-rule:nonzero;"/>
    </g>
    <g transform="matrix(1.90436,0,0,1.90436,-976.824,-722.904)">
        <path d="M539.225,397.466C539.225,398.176 538.65,398.75 537.941,398.75C537.232,398.75 536.657,398.176 536.657,397.466C536.657,396.757 537.232,396.183 537.941,396.183C538.65,396.183 539.225,396.757 539.225,397.466Z" style="fill:rgb(92,136,135);fill-rule:nonzero;"/>
    </g>
    <g transform="matrix(1.90436,0,0,1.90436,-976.824,-722.904)">
        <path d="M535.317,401.451C535.317,402.16 534.742,402.735 534.033,402.735C533.324,402.735 532.749,402.16 532.749,401.451C532.749,400.742 533.324,400.167 534.033,400.167C534.742,400.167 535.317,400.742 535.317,401.451Z" style="fill:rgb(221,219,208);fill-rule:nonzero;"/>
    </g>
    <g transform="matrix(1.90436,0,0,1.90436,-976.824,-722.904)">
        <path d="M539.225,401.451C539.225,402.16 538.65,402.735 537.941,402.735C537.232,402.735 536.657,402.16 536.657,401.451C536.657,400.742 537.232,400.167 537.941,400.167C538.65,400.167 539.225,400.742 539.225,401.451Z" style="fill:rgb(199,162,79);fill-rule:nonzero;"/>
    </g>
</svg>
