<?xml version="1.0" encoding="UTF-8" standalone="no"?>
<!DOCTYPE svg PUBLIC "-//W3C//DTD SVG 1.1//EN" "http://www.w3.org/Graphics/SVG/1.1/DTD/svg11.dtd">
<svg width="100%" height="100%" viewBox="0 0 64 64" version="1.1" xmlns="http://www.w3.org/2000/svg" xmlns:xlink="http://www.w3.org/1999/xlink" xml:space="preserve" xmlns:serif="http://www.serif.com/" style="fill-rule:evenodd;clip-rule:evenodd;stroke-linejoin:round;stroke-miterlimit:2;">
    <g transform="matrix(1.90329,0,0,1.90329,-1595.07,-1606.74)">
        <path d="M864.424,864.103C863.393,864.103 862.451,863.726 861.727,863.102C859.781,864.651 858.446,867.628 858.446,869.958L864.424,869.958L864.424,864.103Z" style="fill:rgb(196,97,105);fill-rule:nonzero;"/>
    </g>
    <g transform="matrix(1.90329,0,0,1.90329,-1595.07,-1606.74)">
        <path d="M867.121,863.102C866.396,863.726 865.455,864.103 864.424,864.103L864.424,869.958L870.402,869.958C870.402,867.628 869.067,864.651 867.121,863.102Z" style="fill:rgb(175,88,95);fill-rule:nonzero;"/>
    </g>
    <g transform="matrix(1.90329,0,0,1.90329,-1595.07,-1606.74)">
        <path d="M864.424,854.685C862.14,854.685 860.288,856.537 860.288,858.821C860.288,860.074 860.847,861.196 861.727,861.955C862.451,862.578 863.393,862.957 864.424,862.957L864.424,854.685Z" style="fill:rgb(196,97,105);fill-rule:nonzero;"/>
    </g>
    <g transform="matrix(1.90329,0,0,1.90329,-1595.07,-1606.74)">
        <path d="M868.56,858.821C868.56,856.537 866.708,854.685 864.424,854.685L864.424,862.957C865.455,862.957 866.396,862.578 867.121,861.955C868.001,861.196 868.56,860.074 868.56,858.821Z" style="fill:rgb(175,88,95);fill-rule:nonzero;"/>
    </g>
    <g transform="matrix(1.90329,0,0,1.90329,-1595.07,-1606.74)">
        <path d="M845.32,864.103C844.289,864.103 843.347,863.726 842.623,863.102C840.677,864.651 839.342,867.628 839.342,869.958L845.32,869.958L845.32,864.103Z" style="fill:rgb(230,186,89);fill-rule:nonzero;"/>
    </g>
    <g transform="matrix(1.90329,0,0,1.90329,-1595.07,-1606.74)">
        <path d="M848.017,863.102C847.293,863.726 846.351,864.103 845.32,864.103L845.32,869.958L851.298,869.958C851.298,867.628 849.963,864.651 848.017,863.102Z" style="fill:rgb(199,162,79);fill-rule:nonzero;"/>
    </g>
    <g transform="matrix(1.90329,0,0,1.90329,-1595.07,-1606.74)">
        <path d="M845.32,854.685C843.036,854.685 841.185,856.537 841.185,858.821C841.185,860.074 841.742,861.196 842.623,861.955C843.347,862.578 844.289,862.957 845.32,862.957L845.32,854.685Z" style="fill:rgb(230,186,89);fill-rule:nonzero;"/>
    </g>
    <g transform="matrix(1.90329,0,0,1.90329,-1595.07,-1606.74)">
        <path d="M849.455,858.821C849.455,856.537 847.603,854.685 845.32,854.685L845.32,862.957C846.351,862.957 847.293,862.578 848.017,861.955C848.897,861.196 849.455,860.074 849.455,858.821Z" style="fill:rgb(199,162,79);fill-rule:nonzero;"/>
    </g>
    <g transform="matrix(1.90329,0,0,1.90329,-1595.07,-1606.74)">
        <path d="M854.872,863.093C853.663,863.093 852.559,862.649 851.71,861.918C849.428,863.735 847.862,867.226 847.862,869.958L854.872,869.958L854.872,863.093Z" style="fill:rgb(109,161,161);fill-rule:nonzero;"/>
    </g>
    <g transform="matrix(1.90329,0,0,1.90329,-1595.07,-1606.74)">
        <path d="M858.034,861.918C857.185,862.649 856.081,863.093 854.872,863.093L854.872,869.958L861.882,869.958C861.882,867.226 860.316,863.735 858.034,861.918Z" style="fill:rgb(88,130,129);fill-rule:nonzero;"/>
    </g>
    <g transform="matrix(1.90329,0,0,1.90329,-1595.07,-1606.74)">
        <path d="M854.872,852.051C852.194,852.051 850.022,854.222 850.022,856.899C850.022,858.369 850.678,859.685 851.71,860.574C852.559,861.306 853.663,861.749 854.872,861.749L854.872,852.051Z" style="fill:rgb(109,161,161);fill-rule:nonzero;"/>
    </g>
    <g transform="matrix(1.90329,0,0,1.90329,-1595.07,-1606.74)">
        <path d="M859.721,856.899C859.721,854.222 857.55,852.051 854.872,852.051L854.872,861.749C856.081,861.749 857.185,861.306 858.034,860.574C859.066,859.685 859.721,858.369 859.721,856.899Z" style="fill:rgb(88,130,129);fill-rule:nonzero;"/>
    </g>
</svg>
