<?xml version="1.0" encoding="UTF-8" standalone="no"?>
<!DOCTYPE svg PUBLIC "-//W3C//DTD SVG 1.1//EN" "http://www.w3.org/Graphics/SVG/1.1/DTD/svg11.dtd">
<svg width="100%" height="100%" viewBox="0 0 64 64" version="1.1" xmlns="http://www.w3.org/2000/svg" xmlns:xlink="http://www.w3.org/1999/xlink" xml:space="preserve" xmlns:serif="http://www.serif.com/" style="fill-rule:evenodd;clip-rule:evenodd;stroke-linejoin:round;stroke-miterlimit:2;">
    <g transform="matrix(1.97044,0,0,1.97044,-1268.09,-1533.78)">
        <path d="M655.205,779.141C654.745,779.141 654.371,779.514 654.371,779.975L654.371,782.707C654.371,783.167 654.745,783.541 655.205,783.541L655.452,783.541L655.452,793.315L647.17,805.825C645.904,807.736 647.486,810.127 650.018,810.127L659.796,810.127L659.796,779.141L655.205,779.141Z" style="fill:rgb(240,237,226);fill-rule:nonzero;"/>
    </g>
    <g transform="matrix(1.97044,0,0,1.97044,-1268.09,-1533.78)">
        <path d="M672.422,805.825L664.14,793.315L664.14,783.541L664.388,783.541C664.848,783.541 665.221,783.167 665.221,782.707L665.221,779.975C665.221,779.514 664.848,779.141 664.388,779.141L659.796,779.141L659.796,810.127L669.574,810.127C672.105,810.127 673.688,807.736 672.422,805.825Z" style="fill:rgb(216,213,202);fill-rule:nonzero;"/>
    </g>
    <g transform="matrix(1.97044,0,0,1.97044,-1268.09,-1533.78)">
        <path d="M669.685,805.07L665.818,799.228C662.114,798.838 661.196,799.448 659.838,800.582L659.838,808.439L667.455,808.439C669.437,808.439 670.678,806.568 669.685,805.07Z" style="fill:rgb(175,88,95);fill-rule:nonzero;"/>
    </g>
    <g transform="matrix(1.97044,0,0,1.97044,-1268.09,-1533.78)">
        <path d="M658.013,802.011C655.7,803.706 653.534,803.102 652.202,801.603L649.907,805.07C648.915,806.568 650.154,808.439 652.138,808.439L659.838,808.439L659.838,800.582C659.341,800.996 658.786,801.479 658.013,802.011Z" style="fill:rgb(196,97,105);fill-rule:nonzero;"/>
    </g>
    <g transform="matrix(1.97044,0,0,1.97044,-1268.09,-1533.78)">
        <path d="M659.512,795.484C659.512,795.804 659.621,796.096 659.8,796.332L659.8,794.637C659.621,794.874 659.512,795.165 659.512,795.484Z" style="fill:rgb(196,97,105);fill-rule:nonzero;"/>
    </g>
    <g transform="matrix(1.97044,0,0,1.97044,-1268.09,-1533.78)">
        <path d="M660.928,794.068C660.465,794.068 660.059,794.294 659.8,794.637L659.8,796.332C660.059,796.675 660.465,796.9 660.928,796.9C661.709,796.9 662.343,796.267 662.343,795.484C662.343,794.702 661.709,794.068 660.928,794.068Z" style="fill:rgb(175,88,95);fill-rule:nonzero;"/>
    </g>
    <g transform="matrix(1.97044,0,0,1.97044,-1268.09,-1533.78)">
        <path d="M659.189,788.299C658.675,788.299 658.258,788.716 658.258,789.23C658.258,789.745 658.675,790.162 659.189,790.162C659.418,790.162 659.624,790.077 659.786,789.94L659.786,788.52C659.624,788.384 659.418,788.299 659.189,788.299Z" style="fill:rgb(196,97,105);fill-rule:nonzero;"/>
    </g>
    <g transform="matrix(1.97044,0,0,1.97044,-1268.09,-1533.78)">
        <path d="M660.121,789.23C660.121,788.944 659.989,788.691 659.786,788.52L659.786,789.94C659.989,789.769 660.121,789.517 660.121,789.23Z" style="fill:rgb(175,88,95);fill-rule:nonzero;"/>
    </g>
    <g transform="matrix(1.97044,0,0,1.97044,-1268.09,-1533.78)">
        <path d="M662.975,787.268C662.975,787.617 662.691,787.9 662.343,787.9C661.994,787.9 661.712,787.617 661.712,787.268C661.712,786.92 661.994,786.638 662.343,786.638C662.691,786.638 662.975,786.92 662.975,787.268Z" style="fill:rgb(175,88,95);fill-rule:nonzero;"/>
    </g>
    <g transform="matrix(1.97044,0,0,1.97044,-1268.09,-1533.78)">
        <path d="M654.987,782.473C654.818,782.473 654.681,782.61 654.681,782.779L654.681,782.786C654.681,782.956 654.818,783.093 654.987,783.093L659.799,783.093L659.799,782.473L654.987,782.473Z" style="fill:rgb(216,213,202);fill-rule:nonzero;"/>
    </g>
    <g transform="matrix(1.97044,0,0,1.97044,-1268.09,-1533.78)">
        <path d="M664.605,782.473L659.799,782.473L659.799,783.093L664.605,783.093C664.774,783.093 664.912,782.956 664.912,782.786L664.912,782.779C664.912,782.61 664.774,782.473 664.605,782.473Z" style="fill:rgb(240,237,226);fill-rule:nonzero;"/>
    </g>
</svg>
