<?xml version="1.0" encoding="UTF-8" standalone="no"?>
<!DOCTYPE svg PUBLIC "-//W3C//DTD SVG 1.1//EN" "http://www.w3.org/Graphics/SVG/1.1/DTD/svg11.dtd">
<svg width="100%" height="100%" viewBox="0 0 64 64" version="1.1" xmlns="http://www.w3.org/2000/svg" xmlns:xlink="http://www.w3.org/1999/xlink" xml:space="preserve" xmlns:serif="http://www.serif.com/" style="fill-rule:evenodd;clip-rule:evenodd;stroke-linejoin:round;stroke-miterlimit:2;">
    <g transform="matrix(1.85377,0,0,1.85377,-1793.82,-456.778)">
        <path d="M988.14,276.046L981.706,276.046L981.706,276.051C981.706,277.828 983.145,279.269 984.922,279.269C986.7,279.269 988.14,277.828 988.14,276.051L988.14,276.046Z" style="fill:rgb(240,237,226);fill-rule:nonzero;"/>
    </g>
    <g transform="matrix(1.85377,0,0,1.85377,-1793.82,-456.778)">
        <path d="M984.922,249.563C985.75,249.563 986.421,250.233 986.421,251.062C986.421,251.888 985.75,252.558 984.922,252.558C984.095,252.558 983.425,251.888 983.425,251.062C983.425,250.233 984.095,249.563 984.922,249.563ZM971.336,275.683L998.509,275.683C998.509,274.705 996.266,273.207 996.266,273.207C994.522,272.568 994.119,272.334 994.083,270.895C994.074,270.549 994.087,270.136 994.106,269.629C994.114,269.433 994.123,269.221 994.133,268.996C994.149,268.618 994.165,268.197 994.18,267.729C994.202,266.996 994.218,266.147 994.214,265.153C994.179,256.936 989.804,254.124 986.961,253.25C987.548,252.704 987.918,251.926 987.918,251.062C987.918,249.406 986.577,248.065 984.922,248.065C983.268,248.065 981.927,249.406 981.927,251.062C981.927,251.926 982.297,252.705 982.884,253.251C980.047,254.126 975.687,256.939 975.651,265.153C975.646,266.147 975.663,266.996 975.684,267.729C975.698,268.197 975.714,268.618 975.729,268.996C975.738,269.221 975.747,269.433 975.755,269.629C975.773,270.136 975.784,270.549 975.773,270.895C975.732,272.334 975.322,272.568 973.579,273.207C973.579,273.207 971.336,274.705 971.336,275.683Z" style="fill:rgb(240,237,226);fill-rule:nonzero;"/>
    </g>
    <g transform="matrix(1.85377,0,0,1.85377,-1793.82,-456.778)">
        <path d="M988.14,276.046L984.922,276.046L984.922,279.269C986.7,279.269 988.14,277.828 988.14,276.051L988.14,276.046Z" style="fill:rgb(188,110,113);fill-rule:nonzero;"/>
    </g>
    <g transform="matrix(1.85377,0,0,1.85377,-1793.82,-456.778)">
        <path d="M981.706,276.046L981.706,276.051C981.706,277.828 983.145,279.269 984.922,279.269L984.922,276.046L981.706,276.046Z" style="fill:rgb(205,119,124);fill-rule:nonzero;"/>
    </g>
    <g transform="matrix(1.85377,0,0,1.85377,-1793.82,-456.778)">
        <path d="M984.922,269.629L994.106,269.629C994.114,269.433 994.123,269.221 994.133,268.996L984.922,268.996L984.922,269.629Z" style="fill:rgb(208,174,94);fill-rule:nonzero;"/>
    </g>
    <g transform="matrix(1.85377,0,0,1.85377,-1793.82,-456.778)">
        <path d="M984.922,268.996L975.729,268.996C975.738,269.221 975.747,269.433 975.755,269.629L984.922,269.629L984.922,268.996Z" style="fill:rgb(234,196,105);fill-rule:nonzero;"/>
    </g>
    <g transform="matrix(1.85377,0,0,1.85377,-1793.82,-456.778)">
        <path d="M975.773,270.895C975.732,272.334 975.322,272.568 973.579,273.207C973.579,273.207 971.336,274.705 971.336,275.683L984.922,275.683L984.922,270.895L975.773,270.895Z" style="fill:rgb(234,196,105);fill-rule:nonzero;"/>
    </g>
    <g transform="matrix(1.85377,0,0,1.85377,-1793.82,-456.778)">
        <path d="M984.922,275.683L998.509,275.683C998.509,274.705 996.266,273.207 996.266,273.207C994.522,272.568 994.119,272.334 994.083,270.895L984.922,270.895L984.922,275.683Z" style="fill:rgb(208,174,94);fill-rule:nonzero;"/>
    </g>
    <g transform="matrix(1.85377,0,0,1.85377,-1793.82,-456.778)">
        <path d="M986.421,251.062C986.421,251.888 985.75,252.558 984.922,252.558L984.922,267.729L994.18,267.729C994.202,266.996 994.218,266.147 994.214,265.153C994.179,256.936 989.804,254.124 986.961,253.25C987.548,252.704 987.918,251.926 987.918,251.062C987.918,249.406 986.577,248.065 984.922,248.065L984.922,249.563C985.75,249.563 986.421,250.233 986.421,251.062Z" style="fill:rgb(208,174,94);fill-rule:nonzero;"/>
    </g>
    <g transform="matrix(1.85377,0,0,1.85377,-1793.82,-456.778)">
        <path d="M984.922,252.558C984.095,252.558 983.425,251.888 983.425,251.062C983.425,250.233 984.095,249.563 984.922,249.563L984.922,248.065C983.268,248.065 981.927,249.406 981.927,251.062C981.927,251.926 982.297,252.705 982.884,253.251C980.047,254.126 975.687,256.939 975.651,265.153C975.646,266.147 975.663,266.996 975.684,267.729L984.922,267.729L984.922,252.558Z" style="fill:rgb(234,196,105);fill-rule:nonzero;"/>
    </g>
    <g transform="matrix(1.85377,0,0,1.85377,-1793.82,-456.778)">
        <path d="M984.922,270.895L994.083,270.895C994.074,270.549 994.087,270.136 994.106,269.629L984.922,269.629L984.922,270.895Z" style="fill:rgb(214,211,200);fill-rule:nonzero;"/>
    </g>
    <g transform="matrix(1.85377,0,0,1.85377,-1793.82,-456.778)">
        <path d="M984.922,269.629L975.755,269.629C975.773,270.136 975.784,270.549 975.773,270.895L984.922,270.895L984.922,269.629Z" style="fill:rgb(240,237,226);fill-rule:nonzero;"/>
    </g>
    <g transform="matrix(1.85377,0,0,1.85377,-1793.82,-456.778)">
        <path d="M984.922,268.996L994.133,268.996C994.149,268.618 994.165,268.197 994.18,267.729L984.922,267.729L984.922,268.996Z" style="fill:rgb(214,211,200);fill-rule:nonzero;"/>
    </g>
    <g transform="matrix(1.85377,0,0,1.85377,-1793.82,-456.778)">
        <path d="M984.922,267.729L975.684,267.729C975.698,268.197 975.714,268.618 975.729,268.996L984.922,268.996L984.922,267.729Z" style="fill:rgb(240,237,226);fill-rule:nonzero;"/>
    </g>
</svg>
