<?xml version="1.0" encoding="UTF-8" standalone="no"?>
<!DOCTYPE svg PUBLIC "-//W3C//DTD SVG 1.1//EN" "http://www.w3.org/Graphics/SVG/1.1/DTD/svg11.dtd">
<svg width="100%" height="100%" viewBox="0 0 64 64" version="1.1" xmlns="http://www.w3.org/2000/svg" xmlns:xlink="http://www.w3.org/1999/xlink" xml:space="preserve" xmlns:serif="http://www.serif.com/" style="fill-rule:evenodd;clip-rule:evenodd;stroke-linejoin:round;stroke-miterlimit:2;">
    <g transform="matrix(1.9037,0,0,1.9037,-976.473,-217.242)">
        <path d="M541.117,128.328C540.29,124.631 536.991,121.867 533.045,121.867C530.057,121.867 527.439,123.452 525.984,125.826C525.357,125.312 524.556,125.003 523.682,125.003C521.789,125.003 520.237,126.448 520.062,128.294C520.024,128.293 519.986,128.291 519.947,128.291C516.742,128.291 514.143,130.889 514.143,134.094C514.143,137.251 516.666,139.818 519.806,139.893L519.806,139.896L538.382,139.896C538.71,139.953 539.047,139.984 539.392,139.984C542.681,139.984 545.347,137.317 545.347,134.028C545.347,131.339 543.565,129.067 541.117,128.328Z" style="fill:rgb(109,161,161);fill-rule:nonzero;"/>
    </g>
    <g transform="matrix(1.9037,0,0,1.9037,-976.473,-217.242)">
        <path d="M541.117,128.328C540.29,124.631 536.991,121.867 533.045,121.867C531.914,121.867 530.835,122.095 529.853,122.506L529.853,139.896L538.382,139.896C538.71,139.953 539.047,139.984 539.392,139.984C542.681,139.984 545.347,137.317 545.347,134.028C545.347,131.339 543.565,129.067 541.117,128.328Z" style="fill:rgb(97,143,142);fill-rule:nonzero;"/>
    </g>
</svg>
