<?xml version="1.0" encoding="UTF-8" standalone="no"?>
<!DOCTYPE svg PUBLIC "-//W3C//DTD SVG 1.1//EN" "http://www.w3.org/Graphics/SVG/1.1/DTD/svg11.dtd">
<svg width="100%" height="100%" viewBox="0 0 64 64" version="1.1" xmlns="http://www.w3.org/2000/svg" xmlns:xlink="http://www.w3.org/1999/xlink" xml:space="preserve" xmlns:serif="http://www.serif.com/" style="fill-rule:evenodd;clip-rule:evenodd;stroke-linejoin:round;stroke-miterlimit:2;">
    <g transform="matrix(1.84689,0,0,1.84689,-225.816,-209.804)">
        <path d="M155.194,131.198C155.043,139.813 147.937,146.675 139.322,146.524C130.707,146.374 123.845,139.268 123.996,130.653C124.146,122.038 131.252,115.176 139.868,115.326C148.482,115.477 155.344,122.583 155.194,131.198Z" style="fill:rgb(240,237,226);fill-rule:nonzero;"/>
    </g>
    <g transform="matrix(1.84689,0,0,1.84689,-225.816,-209.804)">
        <path d="M130.603,121.459L128.804,119.66C128.789,119.674 128.772,119.688 128.757,119.702C128.61,119.844 128.47,119.99 128.33,120.136L130.128,121.934L130.603,121.459Z" style="fill:rgb(78,79,81);fill-rule:nonzero;"/>
    </g>
    <g transform="matrix(1.84689,0,0,1.84689,-225.816,-209.804)">
        <path d="M123.996,130.653C123.992,130.856 123.996,131.059 124,131.261L126.543,131.261L126.543,130.59L123.999,130.59C123.998,130.611 123.996,130.631 123.996,130.653Z" style="fill:rgb(78,79,81);fill-rule:nonzero;"/>
    </g>
    <g transform="matrix(1.84689,0,0,1.84689,-225.816,-209.804)">
        <path d="M128.328,141.716C128.343,141.732 128.356,141.748 128.371,141.763C128.513,141.91 128.659,142.05 128.804,142.19L130.603,140.392L130.128,139.917L128.328,141.716Z" style="fill:rgb(78,79,81);fill-rule:nonzero;"/>
    </g>
    <g transform="matrix(1.84689,0,0,1.84689,-225.816,-209.804)">
        <path d="M139.868,115.326C139.664,115.323 139.461,115.327 139.259,115.331L139.259,117.874L139.93,117.874L139.93,115.329C139.909,115.329 139.889,115.327 139.868,115.326Z" style="fill:rgb(78,79,81);fill-rule:nonzero;"/>
    </g>
    <g transform="matrix(1.84689,0,0,1.84689,-225.816,-209.804)">
        <path d="M139.259,146.522C139.28,146.522 139.3,146.524 139.322,146.524C139.526,146.528 139.728,146.524 139.93,146.52L139.93,143.978L139.259,143.978L139.259,146.522Z" style="fill:rgb(78,79,81);fill-rule:nonzero;"/>
    </g>
    <g transform="matrix(1.84689,0,0,1.84689,-225.816,-209.804)">
        <path d="M148.586,140.392L150.385,142.191C150.401,142.177 150.417,142.164 150.432,142.149C150.579,142.007 150.719,141.861 150.859,141.715L149.061,139.917L148.586,140.392Z" style="fill:rgb(78,79,81);fill-rule:nonzero;"/>
    </g>
    <g transform="matrix(1.84689,0,0,1.84689,-225.816,-209.804)">
        <path d="M155.189,130.59L152.646,130.59L152.646,131.261L155.191,131.261C155.191,131.24 155.193,131.219 155.194,131.198C155.197,130.994 155.193,130.792 155.189,130.59Z" style="fill:rgb(78,79,81);fill-rule:nonzero;"/>
    </g>
    <g transform="matrix(1.84689,0,0,1.84689,-225.816,-209.804)">
        <path d="M150.384,119.661L148.586,121.459L149.061,121.934L150.86,120.135C150.846,120.119 150.833,120.104 150.818,120.088C150.676,119.941 150.53,119.801 150.384,119.661Z" style="fill:rgb(78,79,81);fill-rule:nonzero;"/>
    </g>
    <g transform="matrix(1.84689,0,0,1.84689,-225.816,-209.804)">
        <path d="M139.868,115.326C139.775,115.325 139.685,115.329 139.593,115.329L139.593,146.522C148.084,146.526 155.044,139.723 155.194,131.198C155.344,122.583 148.482,115.477 139.868,115.326Z" style="fill:rgb(216,213,202);fill-rule:nonzero;"/>
    </g>
    <g transform="matrix(1.84689,0,0,1.84689,-225.816,-209.804)">
        <path d="M139.868,115.326C139.775,115.325 139.685,115.328 139.593,115.329L139.593,117.874L139.93,117.874L139.93,115.329C139.909,115.329 139.889,115.327 139.868,115.326Z" style="fill:rgb(57,57,59);fill-rule:nonzero;"/>
    </g>
    <g transform="matrix(1.84689,0,0,1.84689,-225.816,-209.804)">
        <path d="M139.593,143.978L139.593,146.522C139.706,146.521 139.818,146.522 139.93,146.52L139.93,143.978L139.593,143.978Z" style="fill:rgb(57,57,59);fill-rule:nonzero;"/>
    </g>
    <g transform="matrix(1.84689,0,0,1.84689,-225.816,-209.804)">
        <path d="M148.586,140.392L150.385,142.191C150.401,142.177 150.417,142.164 150.432,142.149C150.579,142.007 150.719,141.861 150.859,141.715L149.061,139.917L148.586,140.392Z" style="fill:rgb(57,57,59);fill-rule:nonzero;"/>
    </g>
    <g transform="matrix(1.84689,0,0,1.84689,-225.816,-209.804)">
        <path d="M155.189,130.59L152.646,130.59L152.646,131.261L155.191,131.261C155.191,131.24 155.193,131.219 155.194,131.198C155.197,130.994 155.193,130.792 155.189,130.59Z" style="fill:rgb(57,57,59);fill-rule:nonzero;"/>
    </g>
    <g transform="matrix(1.84689,0,0,1.84689,-225.816,-209.804)">
        <path d="M150.384,119.661L148.586,121.459L149.061,121.934L150.86,120.135C150.846,120.119 150.833,120.104 150.818,120.088C150.676,119.941 150.53,119.801 150.384,119.661Z" style="fill:rgb(57,57,59);fill-rule:nonzero;"/>
    </g>
    <g transform="matrix(2.10477,-2.38106,2.38106,2.10477,-573.557,88.8175)">
        <path d="M140.799,132.292L134.008,135.849L138.39,129.559L140.799,132.292Z" style="fill:rgb(230,186,89);fill-rule:nonzero;"/>
    </g>
    <g transform="matrix(2.10477,-2.38106,2.38106,2.10477,-573.557,88.8175)">
        <path d="M138.39,129.559L145.182,126.002L140.799,132.292L138.39,129.559Z" style="fill:rgb(196,97,105);fill-rule:nonzero;"/>
    </g>
</svg>
