<?xml version="1.0" encoding="UTF-8" standalone="no"?>
<!DOCTYPE svg PUBLIC "-//W3C//DTD SVG 1.1//EN" "http://www.w3.org/Graphics/SVG/1.1/DTD/svg11.dtd">
<svg width="100%" height="100%" viewBox="0 0 64 64" version="1.1" xmlns="http://www.w3.org/2000/svg" xmlns:xlink="http://www.w3.org/1999/xlink" xml:space="preserve" xmlns:serif="http://www.serif.com/" style="fill-rule:evenodd;clip-rule:evenodd;stroke-linejoin:round;stroke-miterlimit:2;">
    <g transform="matrix(1.86348,0,0,1.86348,-591.65,-1943.51)">
        <path d="M327.556,1044.59C326.707,1044.59 326.019,1045.28 326.019,1046.12L326.019,1068.8C326.019,1069.65 326.707,1070.34 327.556,1070.34L336.926,1070.34L336.926,1044.59L327.556,1044.59Z" style="fill:rgb(221,219,208);fill-rule:nonzero;"/>
    </g>
    <g transform="matrix(1.86348,0,0,1.86348,-591.65,-1943.51)">
        <path d="M341.784,1044.59L336.926,1044.59L336.926,1070.34L346.947,1070.34C347.796,1070.34 348.484,1069.65 348.484,1068.8L348.484,1051.29L341.784,1044.59Z" style="fill:rgb(221,219,208);fill-rule:nonzero;"/>
    </g>
    <g transform="matrix(1.86348,0,0,1.86348,-591.65,-1943.51)">
        <path d="M330.641,1051.14C330.444,1051.14 330.284,1051.5 330.284,1051.95C330.284,1052.4 330.444,1052.76 330.641,1052.76L336.95,1052.76L336.95,1051.14L330.641,1051.14Z" style="fill:rgb(196,97,105);fill-rule:nonzero;"/>
    </g>
    <g transform="matrix(1.86348,0,0,1.86348,-591.65,-1943.51)">
        <path d="M343.862,1051.14L336.95,1051.14L336.95,1052.76L343.862,1052.76C344.059,1052.76 344.219,1052.4 344.219,1051.95C344.219,1051.5 344.059,1051.14 343.862,1051.14Z" style="fill:rgb(175,88,95);fill-rule:nonzero;"/>
    </g>
    <g transform="matrix(1.86348,0,0,1.86348,-591.65,-1943.51)">
        <path d="M330.641,1056.65C330.444,1056.65 330.284,1057.01 330.284,1057.46C330.284,1057.91 330.444,1058.27 330.641,1058.27L336.95,1058.27L336.95,1056.65L330.641,1056.65Z" style="fill:rgb(196,97,105);fill-rule:nonzero;"/>
    </g>
    <g transform="matrix(1.86348,0,0,1.86348,-591.65,-1943.51)">
        <path d="M343.862,1056.65L336.95,1056.65L336.95,1058.27L343.862,1058.27C344.059,1058.27 344.219,1057.91 344.219,1057.46C344.219,1057.01 344.059,1056.65 343.862,1056.65Z" style="fill:rgb(175,88,95);fill-rule:nonzero;"/>
    </g>
    <g transform="matrix(1.86348,0,0,1.86348,-591.65,-1943.51)">
        <path d="M330.641,1062.16C330.444,1062.16 330.284,1062.53 330.284,1062.97C330.284,1063.42 330.444,1063.78 330.641,1063.78L336.95,1063.78L336.95,1062.16L330.641,1062.16Z" style="fill:rgb(196,97,105);fill-rule:nonzero;"/>
    </g>
    <g transform="matrix(1.86348,0,0,1.86348,-591.65,-1943.51)">
        <path d="M343.862,1062.16L336.95,1062.16L336.95,1063.78L343.862,1063.78C344.059,1063.78 344.219,1063.42 344.219,1062.97C344.219,1062.53 344.059,1062.16 343.862,1062.16Z" style="fill:rgb(175,88,95);fill-rule:nonzero;"/>
    </g>
    <g transform="matrix(1.86348,0,0,1.86348,-591.65,-1943.51)">
        <path d="M341.784,1049.75C341.784,1050.6 342.472,1051.29 343.321,1051.29L348.484,1051.29L341.784,1044.59L341.784,1049.75Z" style="fill:rgb(240,237,226);fill-rule:nonzero;"/>
    </g>
    <g transform="matrix(1.86348,0,0,1.86348,-591.65,-1943.51)">
        <path d="M322.394,1049.9C321.544,1049.9 320.856,1050.58 320.856,1051.43L320.856,1074.11C320.856,1074.96 321.544,1075.65 322.394,1075.65L331.764,1075.65L331.764,1049.9L322.394,1049.9Z" style="fill:rgb(221,219,208);fill-rule:nonzero;"/>
    </g>
    <g transform="matrix(1.86348,0,0,1.86348,-591.65,-1943.51)">
        <path d="M336.622,1049.9L331.764,1049.9L331.764,1075.65L341.785,1075.65C342.634,1075.65 343.322,1074.96 343.322,1074.11L343.322,1056.6L336.622,1049.9Z" style="fill:rgb(221,219,208);fill-rule:nonzero;"/>
    </g>
    <g transform="matrix(1.86348,0,0,1.86348,-591.65,-1943.51)">
        <path d="M325.478,1056.45C325.281,1056.45 325.122,1056.81 325.122,1057.26C325.122,1057.71 325.281,1058.07 325.478,1058.07L331.788,1058.07L331.788,1056.45L325.478,1056.45Z" style="fill:rgb(196,97,105);fill-rule:nonzero;"/>
    </g>
    <g transform="matrix(1.86348,0,0,1.86348,-591.65,-1943.51)">
        <path d="M338.7,1056.45L331.788,1056.45L331.788,1058.07L338.7,1058.07C338.897,1058.07 339.057,1057.71 339.057,1057.26C339.057,1056.81 338.897,1056.45 338.7,1056.45Z" style="fill:rgb(175,88,95);fill-rule:nonzero;"/>
    </g>
    <g transform="matrix(1.86348,0,0,1.86348,-591.65,-1943.51)">
        <path d="M325.478,1061.96C325.281,1061.96 325.122,1062.32 325.122,1062.77C325.122,1063.22 325.281,1063.58 325.478,1063.58L331.788,1063.58L331.788,1061.96L325.478,1061.96Z" style="fill:rgb(196,97,105);fill-rule:nonzero;"/>
    </g>
    <g transform="matrix(1.86348,0,0,1.86348,-591.65,-1943.51)">
        <path d="M338.7,1061.96L331.788,1061.96L331.788,1063.58L338.7,1063.58C338.897,1063.58 339.057,1063.22 339.057,1062.77C339.057,1062.32 338.897,1061.96 338.7,1061.96Z" style="fill:rgb(175,88,95);fill-rule:nonzero;"/>
    </g>
    <g transform="matrix(1.86348,0,0,1.86348,-591.65,-1943.51)">
        <path d="M325.478,1067.47C325.281,1067.47 325.122,1067.84 325.122,1068.28C325.122,1068.73 325.281,1069.09 325.478,1069.09L331.788,1069.09L331.788,1067.47L325.478,1067.47Z" style="fill:rgb(196,97,105);fill-rule:nonzero;"/>
    </g>
    <g transform="matrix(1.86348,0,0,1.86348,-591.65,-1943.51)">
        <path d="M338.7,1067.47L331.788,1067.47L331.788,1069.09L338.7,1069.09C338.897,1069.09 339.057,1068.73 339.057,1068.28C339.057,1067.84 338.897,1067.47 338.7,1067.47Z" style="fill:rgb(175,88,95);fill-rule:nonzero;"/>
    </g>
    <g transform="matrix(1.86348,0,0,1.86348,-591.65,-1943.51)">
        <path d="M336.622,1055.06C336.622,1055.91 337.31,1056.6 338.159,1056.6L343.322,1056.6L336.622,1049.9L336.622,1055.06Z" style="fill:rgb(240,237,226);fill-rule:nonzero;"/>
    </g>
    <g transform="matrix(0.558981,0,0,0.558981,-538.159,-394.629)">
        <path d="M1064.87,779.716L1049.8,794.779C1049.81,794.788 1049.82,794.797 1049.83,794.807C1051.69,796.879 1051.65,798.519 1050.92,799.892C1052.76,798.424 1054.68,796.704 1056.6,794.786C1064.03,787.358 1066.74,781.594 1064.87,779.716Z" style="fill:rgb(78,79,81);fill-rule:nonzero;"/>
    </g>
    <g transform="matrix(0.558981,0,0,0.558981,-538.159,-394.629)">
        <path d="M1049.83,794.807C1049.82,794.797 1049.81,794.788 1049.8,794.779L1042.6,801.984L1044.69,804.076C1046.5,803.152 1048.64,801.721 1050.92,799.892C1051.65,798.519 1051.69,796.879 1049.83,794.807Z" style="fill:rgb(121,174,174);fill-rule:nonzero;"/>
    </g>
    <g transform="matrix(0.558981,0,0,0.558981,-538.159,-394.629)">
        <path d="M1049.8,794.779L1064.87,779.716C1062.99,777.837 1057.22,780.556 1049.79,787.983C1048.06,789.722 1046.48,791.466 1045.11,793.143C1046.46,792.616 1048.03,792.826 1049.8,794.779Z" style="fill:rgb(57,58,59);fill-rule:nonzero;"/>
    </g>
    <g transform="matrix(0.558981,0,0,0.558981,-538.159,-394.629)">
        <path d="M1045.11,793.143C1043.08,795.622 1041.5,797.95 1040.51,799.893L1042.6,801.984L1049.8,794.779C1048.03,792.825 1046.46,792.616 1045.11,793.143Z" style="fill:rgb(102,146,146);fill-rule:nonzero;"/>
    </g>
    <g transform="matrix(0.558981,0,0,0.558981,-538.159,-394.629)">
        <path d="M1044.25,805.428C1044.26,805.416 1044.27,805.404 1044.28,805.393C1045.69,803.985 1048.39,802.004 1045.49,799.096L1041.7,802.881L1044.25,805.428Z" style="fill:rgb(78,79,81);fill-rule:nonzero;"/>
    </g>
    <g transform="matrix(0.558981,0,0,0.558981,-538.159,-394.629)">
        <path d="M1039.19,800.297C1039.18,800.309 1039.16,800.323 1039.15,800.335L1041.7,802.881L1045.49,799.096C1042.58,796.188 1040.6,798.891 1039.19,800.297Z" style="fill:rgb(57,58,59);fill-rule:nonzero;"/>
    </g>
    <g transform="matrix(0.558981,0,0,0.558981,-538.159,-394.629)">
        <path d="M1037.42,801.926C1036.51,802.838 1035.06,807.088 1034.47,808.937C1034.39,809.162 1034.67,809.331 1034.84,809.164L1039.34,804.666C1039.42,804.584 1039.46,804.468 1039.46,804.344C1039.45,804.166 1039.51,803.994 1039.63,803.867C1039.9,803.604 1040.35,803.633 1040.65,803.932C1040.95,804.229 1040.98,804.685 1040.71,804.947C1040.59,805.074 1040.41,805.133 1040.24,805.125C1040.11,805.12 1040,805.162 1039.91,805.244L1035.42,809.742C1035.25,809.908 1035.42,810.186 1035.64,810.115C1037.49,809.523 1041.74,808.073 1042.66,807.162C1042.99,806.829 1043.39,806.465 1043.78,806.065C1043.86,805.977 1043.93,805.906 1043.93,805.906C1045.16,804.591 1046.1,802.902 1043.89,800.691C1041.68,798.481 1039.99,799.426 1038.67,800.652C1038.67,800.652 1038.6,800.719 1038.52,800.803C1038.12,801.19 1037.75,801.593 1037.42,801.926Z" style="fill:rgb(208,174,94);fill-rule:nonzero;"/>
    </g>
    <g transform="matrix(0.558981,0,0,0.558981,-538.159,-394.629)">
        <path d="M1040.65,803.932C1040.95,804.229 1040.98,804.685 1040.71,804.947C1040.59,805.074 1040.41,805.133 1040.24,805.125C1040.11,805.12 1040,805.162 1039.91,805.244L1035.42,809.742C1035.25,809.908 1035.42,810.186 1035.64,810.115C1037.49,809.523 1041.74,808.073 1042.66,807.162C1042.99,806.829 1043.39,806.465 1043.78,806.065C1043.86,805.977 1043.93,805.906 1043.93,805.906C1045.16,804.591 1046.1,802.902 1043.89,800.691L1040.65,803.932Z" style="fill:rgb(234,196,105);fill-rule:nonzero;"/>
    </g>
</svg>
