<?xml version="1.0" encoding="UTF-8" standalone="no"?>
<!DOCTYPE svg PUBLIC "-//W3C//DTD SVG 1.1//EN" "http://www.w3.org/Graphics/SVG/1.1/DTD/svg11.dtd">
<svg width="100%" height="100%" viewBox="0 0 64 64" version="1.1" xmlns="http://www.w3.org/2000/svg" xmlns:xlink="http://www.w3.org/1999/xlink" xml:space="preserve" xmlns:serif="http://www.serif.com/" style="fill-rule:evenodd;clip-rule:evenodd;stroke-linejoin:round;stroke-miterlimit:2;">
    <g transform="matrix(1.80538,0,0,1.80538,-220.022,-1043.14)">
        <path d="M128.837,589.922C128.067,590.425 127.331,591.225 126.509,591.263C125.089,591.329 124.268,590.66 124.117,592.013C123.965,593.365 124.989,594.59 126.403,594.749L129.826,595.133C128.853,593.661 128.485,591.785 128.837,589.922Z" style="fill:rgb(196,97,105);fill-rule:nonzero;"/>
    </g>
    <g transform="matrix(1.80538,0,0,1.80538,-220.022,-1043.14)">
        <path d="M133.613,590.384C132.706,590.384 131.971,589.649 131.971,588.743C131.971,587.837 132.706,587.102 133.613,587.102C134.519,587.102 135.253,587.837 135.253,588.743C135.253,589.649 134.519,590.384 133.613,590.384ZM138.798,584.444C135.568,582.746 131.449,584.223 129.598,587.742C129.226,588.449 128.977,589.185 128.837,589.922C129.162,589.71 129.494,589.55 129.841,589.524C131.192,589.426 133.489,591.747 133.441,592.815C133.388,593.974 131.941,595.369 130.526,595.211L129.826,595.133C130.39,595.98 131.152,596.694 132.096,597.191C132.259,597.277 132.426,597.352 132.593,597.423C132.087,598.513 131.776,599.979 131.776,601.595C131.776,604.961 133.917,606.529 135.738,606.845C136.728,607.017 138.093,607.155 139.595,607.233L139.595,584.945C139.346,584.761 139.08,584.593 138.798,584.444Z" style="fill:rgb(230,186,89);fill-rule:nonzero;"/>
    </g>
    <g transform="matrix(1.80538,0,0,1.80538,-220.022,-1043.14)">
        <path d="M155.087,594.138C155.087,594.138 155.104,593.362 154.739,593.521C154.089,593.805 152.764,595.099 151.798,595.087C149.056,595.053 144.396,593.616 141.787,594.375C140.956,594.617 141.514,593.442 141.514,593.442C142.907,590.331 142.08,586.787 139.595,584.945L139.595,607.233C143.28,607.425 147.791,607.252 149.616,606.299C151.75,605.185 152.026,605.273 153.379,602.361C155.143,598.566 155.087,594.138 155.087,594.138Z" style="fill:rgb(207,167,81);fill-rule:nonzero;"/>
    </g>
    <g transform="matrix(1.80538,0,0,1.80538,-220.022,-1043.14)">
        <path d="M133.441,592.815C133.489,591.747 131.192,589.426 129.841,589.524C129.494,589.55 129.162,589.71 128.837,589.922C128.485,591.785 128.853,593.661 129.826,595.133L130.526,595.211C131.941,595.369 133.388,593.974 133.441,592.815Z" style="fill:rgb(230,186,89);fill-rule:nonzero;"/>
    </g>
    <g transform="matrix(1.80538,0,0,1.80538,-220.022,-1043.14)">
        <path d="M134.17,588.435C133.912,588.435 133.702,588.226 133.702,587.967C133.702,587.708 133.912,587.499 134.17,587.499C134.429,587.499 134.638,587.708 134.638,587.967C134.638,588.226 134.429,588.435 134.17,588.435ZM133.613,587.102C132.706,587.102 131.971,587.837 131.971,588.743C131.971,589.649 132.706,590.384 133.613,590.384C134.519,590.384 135.253,589.649 135.253,588.743C135.253,587.837 134.519,587.102 133.613,587.102Z" style="fill:rgb(78,79,81);fill-rule:nonzero;"/>
    </g>
    <g transform="matrix(1.80538,0,0,1.80538,-220.022,-1043.14)">
        <path d="M134.17,587.499C133.912,587.499 133.702,587.708 133.702,587.967C133.702,588.226 133.912,588.435 134.17,588.435C134.429,588.435 134.638,588.226 134.638,587.967C134.638,587.708 134.429,587.499 134.17,587.499Z" style="fill:rgb(246,246,246);fill-rule:nonzero;"/>
    </g>
</svg>
