<?xml version="1.0" encoding="UTF-8" standalone="no"?>
<!DOCTYPE svg PUBLIC "-//W3C//DTD SVG 1.1//EN" "http://www.w3.org/Graphics/SVG/1.1/DTD/svg11.dtd">
<svg width="100%" height="100%" viewBox="0 0 64 64" version="1.1" xmlns="http://www.w3.org/2000/svg" xmlns:xlink="http://www.w3.org/1999/xlink" xml:space="preserve" xmlns:serif="http://www.serif.com/" style="fill-rule:evenodd;clip-rule:evenodd;stroke-linejoin:round;stroke-miterlimit:2;">
    <g transform="matrix(1.93407,0,0,1.93407,-1244.09,-1633.24)">
        <path d="M673.695,849.165L645.855,849.165C644.977,849.165 644.267,849.876 644.267,850.754L644.267,871.085C644.267,871.963 644.977,872.674 645.855,872.674L673.695,872.674C674.572,872.674 675.284,871.963 675.284,871.085L675.284,850.754C675.284,849.876 674.572,849.165 673.695,849.165Z" style="fill:rgb(240,237,226);fill-rule:nonzero;"/>
    </g>
    <g transform="matrix(1.93407,0,0,1.93407,-1244.09,-1633.24)">
        <path d="M672.571,871.734C673.376,871.734 674.027,871.083 674.027,870.279L674.027,851.65C674.027,850.847 673.376,850.194 672.571,850.194L659.817,850.194L659.817,871.734L672.571,871.734Z" style="fill:rgb(221,219,208);fill-rule:nonzero;"/>
    </g>
    <g transform="matrix(1.93407,0,0,1.93407,-1244.09,-1633.24)">
        <path d="M659.189,866.947L656.014,863.187C655.603,862.701 654.578,862.701 654.168,863.187L644.763,870.707C644.352,871.192 644.865,871.8 645.685,871.8L659.858,871.8L659.858,867.739L659.189,866.947Z" style="fill:rgb(109,161,161);fill-rule:nonzero;"/>
    </g>
    <g transform="matrix(1.93407,0,0,1.93407,-1244.09,-1633.24)">
        <path d="M674.914,870.28L669.137,859.826C668.567,859.151 667.142,859.151 666.571,859.826L662.156,865.054L659.873,867.757L659.871,867.755L659.858,867.739L659.858,871.8L673.801,871.8C674.94,871.8 675.484,870.955 674.914,870.28Z" style="fill:rgb(88,130,129);fill-rule:nonzero;"/>
    </g>
    <g transform="matrix(1.93407,0,0,1.93407,-1244.09,-1633.24)">
        <path d="M650.396,858.075C650.396,859.292 651.383,860.277 652.599,860.277L652.599,855.873C651.383,855.873 650.396,856.859 650.396,858.075Z" style="fill:rgb(230,186,89);fill-rule:nonzero;"/>
    </g>
    <g transform="matrix(1.93407,0,0,1.93407,-1244.09,-1633.24)">
        <path d="M652.599,855.873L652.599,860.277C653.815,860.277 654.801,859.292 654.801,858.075C654.801,856.859 653.815,855.873 652.599,855.873Z" style="fill:rgb(199,162,79);fill-rule:nonzero;"/>
    </g>
    <g transform="matrix(1.93407,0,0,1.93407,-1244.09,-1633.24)">
        <path d="M647.063,871.734C646.26,871.734 645.608,871.083 645.608,870.279L645.608,851.65C645.608,850.847 646.26,850.194 647.063,850.194L659.817,850.194L659.817,849.335L645.897,849.335C645.02,849.335 644.309,850.046 644.309,850.924L644.309,871.256C644.309,872.133 645.02,872.845 645.897,872.845L659.817,872.845L659.817,871.734L647.063,871.734Z" style="fill:rgb(78,79,81);fill-rule:nonzero;"/>
    </g>
    <g transform="matrix(1.93407,0,0,1.93407,-1244.09,-1633.24)">
        <path d="M673.737,849.335L659.817,849.335L659.817,850.194L672.571,850.194C673.376,850.194 674.027,850.847 674.027,851.65L674.027,870.279C674.027,871.083 673.376,871.734 672.571,871.734L659.817,871.734L659.817,872.845L673.737,872.845C674.615,872.845 675.326,872.133 675.326,871.256L675.326,850.924C675.326,850.046 674.615,849.335 673.737,849.335Z" style="fill:rgb(64,64,66);fill-rule:nonzero;"/>
    </g>
</svg>
