<?xml version="1.0" encoding="UTF-8" standalone="no"?>
<!DOCTYPE svg PUBLIC "-//W3C//DTD SVG 1.1//EN" "http://www.w3.org/Graphics/SVG/1.1/DTD/svg11.dtd">
<svg width="100%" height="100%" viewBox="0 0 64 64" version="1.1" xmlns="http://www.w3.org/2000/svg" xmlns:xlink="http://www.w3.org/1999/xlink" xml:space="preserve" xmlns:serif="http://www.serif.com/" style="fill-rule:evenodd;clip-rule:evenodd;stroke-linejoin:round;stroke-miterlimit:2;">
    <g transform="matrix(1.77727,0,0,1.77727,-562.8,-1852.12)">
        <path d="M327.556,1044.59C326.707,1044.59 326.019,1045.28 326.019,1046.12L326.019,1068.8C326.019,1069.65 326.707,1070.34 327.556,1070.34L336.926,1070.34L336.926,1044.59L327.556,1044.59Z" style="fill:rgb(221,219,208);fill-rule:nonzero;"/>
    </g>
    <g transform="matrix(1.77727,0,0,1.77727,-562.8,-1852.12)">
        <path d="M341.784,1044.59L336.926,1044.59L336.926,1070.34L346.947,1070.34C347.796,1070.34 348.484,1069.65 348.484,1068.8L348.484,1051.29L341.784,1044.59Z" style="fill:rgb(221,219,208);fill-rule:nonzero;"/>
    </g>
    <g transform="matrix(1.77727,0,0,1.77727,-562.8,-1852.12)">
        <path d="M330.641,1051.14C330.444,1051.14 330.284,1051.5 330.284,1051.95C330.284,1052.4 330.444,1052.76 330.641,1052.76L336.95,1052.76L336.95,1051.14L330.641,1051.14Z" style="fill:rgb(196,97,105);fill-rule:nonzero;"/>
    </g>
    <g transform="matrix(1.77727,0,0,1.77727,-562.8,-1852.12)">
        <path d="M343.862,1051.14L336.95,1051.14L336.95,1052.76L343.862,1052.76C344.059,1052.76 344.219,1052.4 344.219,1051.95C344.219,1051.5 344.059,1051.14 343.862,1051.14Z" style="fill:rgb(175,88,95);fill-rule:nonzero;"/>
    </g>
    <g transform="matrix(1.77727,0,0,1.77727,-562.8,-1852.12)">
        <path d="M330.641,1056.65C330.444,1056.65 330.284,1057.01 330.284,1057.46C330.284,1057.91 330.444,1058.27 330.641,1058.27L336.95,1058.27L336.95,1056.65L330.641,1056.65Z" style="fill:rgb(196,97,105);fill-rule:nonzero;"/>
    </g>
    <g transform="matrix(1.77727,0,0,1.77727,-562.8,-1852.12)">
        <path d="M343.862,1056.65L336.95,1056.65L336.95,1058.27L343.862,1058.27C344.059,1058.27 344.219,1057.91 344.219,1057.46C344.219,1057.01 344.059,1056.65 343.862,1056.65Z" style="fill:rgb(175,88,95);fill-rule:nonzero;"/>
    </g>
    <g transform="matrix(1.77727,0,0,1.77727,-562.8,-1852.12)">
        <path d="M330.641,1062.16C330.444,1062.16 330.284,1062.53 330.284,1062.97C330.284,1063.42 330.444,1063.78 330.641,1063.78L336.95,1063.78L336.95,1062.16L330.641,1062.16Z" style="fill:rgb(196,97,105);fill-rule:nonzero;"/>
    </g>
    <g transform="matrix(1.77727,0,0,1.77727,-562.8,-1852.12)">
        <path d="M343.862,1062.16L336.95,1062.16L336.95,1063.78L343.862,1063.78C344.059,1063.78 344.219,1063.42 344.219,1062.97C344.219,1062.53 344.059,1062.16 343.862,1062.16Z" style="fill:rgb(175,88,95);fill-rule:nonzero;"/>
    </g>
    <g transform="matrix(1.77727,0,0,1.77727,-562.8,-1852.12)">
        <path d="M341.784,1049.75C341.784,1050.6 342.472,1051.29 343.321,1051.29L348.484,1051.29L341.784,1044.59L341.784,1049.75Z" style="fill:rgb(240,237,226);fill-rule:nonzero;"/>
    </g>
    <g transform="matrix(1.77727,0,0,1.77727,-562.8,-1852.12)">
        <path d="M322.394,1049.9C321.544,1049.9 320.856,1050.58 320.856,1051.43L320.856,1074.11C320.856,1074.96 321.544,1075.65 322.394,1075.65L331.764,1075.65L331.764,1049.9L322.394,1049.9Z" style="fill:rgb(221,219,208);fill-rule:nonzero;"/>
    </g>
    <g transform="matrix(1.77727,0,0,1.77727,-562.8,-1852.12)">
        <path d="M336.622,1049.9L331.764,1049.9L331.764,1075.65L341.785,1075.65C342.634,1075.65 343.322,1074.96 343.322,1074.11L343.322,1056.6L336.622,1049.9Z" style="fill:rgb(221,219,208);fill-rule:nonzero;"/>
    </g>
    <g transform="matrix(1.77727,0,0,1.77727,-562.8,-1852.12)">
        <path d="M325.478,1056.45C325.281,1056.45 325.122,1056.81 325.122,1057.26C325.122,1057.71 325.281,1058.07 325.478,1058.07L331.788,1058.07L331.788,1056.45L325.478,1056.45Z" style="fill:rgb(196,97,105);fill-rule:nonzero;"/>
    </g>
    <g transform="matrix(1.77727,0,0,1.77727,-562.8,-1852.12)">
        <path d="M338.7,1056.45L331.788,1056.45L331.788,1058.07L338.7,1058.07C338.897,1058.07 339.057,1057.71 339.057,1057.26C339.057,1056.81 338.897,1056.45 338.7,1056.45Z" style="fill:rgb(175,88,95);fill-rule:nonzero;"/>
    </g>
    <g transform="matrix(1.77727,0,0,1.77727,-562.8,-1852.12)">
        <path d="M325.478,1061.96C325.281,1061.96 325.122,1062.32 325.122,1062.77C325.122,1063.22 325.281,1063.58 325.478,1063.58L331.788,1063.58L331.788,1061.96L325.478,1061.96Z" style="fill:rgb(196,97,105);fill-rule:nonzero;"/>
    </g>
    <g transform="matrix(1.77727,0,0,1.77727,-562.8,-1852.12)">
        <path d="M338.7,1061.96L331.788,1061.96L331.788,1063.58L338.7,1063.58C338.897,1063.58 339.057,1063.22 339.057,1062.77C339.057,1062.32 338.897,1061.96 338.7,1061.96Z" style="fill:rgb(175,88,95);fill-rule:nonzero;"/>
    </g>
    <g transform="matrix(1.77727,0,0,1.77727,-562.8,-1852.12)">
        <path d="M325.478,1067.47C325.281,1067.47 325.122,1067.84 325.122,1068.28C325.122,1068.73 325.281,1069.09 325.478,1069.09L331.788,1069.09L331.788,1067.47L325.478,1067.47Z" style="fill:rgb(196,97,105);fill-rule:nonzero;"/>
    </g>
    <g transform="matrix(1.77727,0,0,1.77727,-562.8,-1852.12)">
        <path d="M338.7,1067.47L331.788,1067.47L331.788,1069.09L338.7,1069.09C338.897,1069.09 339.057,1068.73 339.057,1068.28C339.057,1067.84 338.897,1067.47 338.7,1067.47Z" style="fill:rgb(175,88,95);fill-rule:nonzero;"/>
    </g>
    <g transform="matrix(1.77727,0,0,1.77727,-562.8,-1852.12)">
        <path d="M336.622,1055.06C336.622,1055.91 337.31,1056.6 338.159,1056.6L343.322,1056.6L336.622,1049.9L336.622,1055.06Z" style="fill:rgb(240,237,226);fill-rule:nonzero;"/>
    </g>
</svg>
