<?xml version="1.0" encoding="UTF-8" standalone="no"?>
<!DOCTYPE svg PUBLIC "-//W3C//DTD SVG 1.1//EN" "http://www.w3.org/Graphics/SVG/1.1/DTD/svg11.dtd">
<svg width="100%" height="100%" viewBox="0 0 64 64" version="1.1" xmlns="http://www.w3.org/2000/svg" xmlns:xlink="http://www.w3.org/1999/xlink" xml:space="preserve" xmlns:serif="http://www.serif.com/" style="fill-rule:evenodd;clip-rule:evenodd;stroke-linejoin:round;stroke-miterlimit:2;">
    <g transform="matrix(1.84203,0,0,1.84203,-1063.58,-1920.76)">
        <path d="M593.617,1074.87L580.018,1061.27C579.035,1060.29 578.977,1058.75 579.888,1057.84L592.496,1045.23C593.407,1044.32 594.942,1044.38 595.925,1045.36L609.524,1058.96C610.507,1059.95 610.565,1061.48 609.654,1062.39L597.046,1075C596.135,1075.91 594.6,1075.85 593.617,1074.87Z" style="fill:rgb(78,79,81);fill-rule:nonzero;"/>
    </g>
    <g transform="matrix(1.84203,0,0,1.84203,-1063.58,-1920.76)">
        <path d="M583.297,1061.79L580.461,1058.96L593.53,1045.89L596.366,1048.72L583.297,1061.79Z" style="fill:rgb(240,237,226);fill-rule:nonzero;"/>
    </g>
    <g transform="matrix(1.84203,0,0,1.84203,-1063.58,-1920.76)">
        <path d="M595.812,1074.31L592.977,1071.47L606.047,1058.4L608.882,1061.24L595.812,1074.31Z" style="fill:rgb(240,237,226);fill-rule:nonzero;"/>
    </g>
    <g transform="matrix(1.84203,0,0,1.84203,-1063.58,-1920.76)">
        <path d="M593.76,1050.6C593.53,1050.83 593.159,1050.83 592.93,1050.6L591.685,1049.36C591.456,1049.13 591.456,1048.75 591.685,1048.53L592.93,1047.28C593.159,1047.05 593.53,1047.05 593.76,1047.28L595.005,1048.53C595.233,1048.75 595.233,1049.13 595.005,1049.36L593.76,1050.6ZM590.51,1053.85C590.28,1054.08 589.909,1054.08 589.68,1053.85L588.435,1052.61C588.206,1052.38 588.206,1052 588.435,1051.78L589.68,1050.53C589.909,1050.3 590.28,1050.3 590.51,1050.53L591.755,1051.78C591.983,1052 591.983,1052.38 591.755,1052.61L590.51,1053.85ZM587.26,1057.1C587.03,1057.33 586.659,1057.33 586.43,1057.1L585.185,1055.86C584.956,1055.63 584.956,1055.25 585.185,1055.03L586.43,1053.78C586.659,1053.55 587.03,1053.55 587.26,1053.78L588.505,1055.03C588.733,1055.25 588.733,1055.63 588.505,1055.86L587.26,1057.1ZM584.01,1060.35C583.78,1060.58 583.409,1060.58 583.18,1060.35L581.935,1059.11C581.706,1058.88 581.706,1058.5 581.935,1058.28L583.18,1057.03C583.409,1056.8 583.78,1056.8 584.01,1057.03L585.255,1058.28C585.483,1058.5 585.483,1058.88 585.255,1059.11L584.01,1060.35ZM595.452,1045.55C594.848,1044.94 593.865,1044.94 593.261,1045.55L580.201,1058.61C579.597,1059.21 579.597,1060.19 580.201,1060.8L582.583,1063.18L597.834,1047.93L595.452,1045.55Z" style="fill:rgb(64,64,66);fill-rule:nonzero;"/>
    </g>
    <g transform="matrix(1.84203,0,0,1.84203,-1063.58,-1920.76)">
        <path d="M605.532,1059.88C605.762,1059.65 606.133,1059.65 606.362,1059.88L607.607,1061.13C607.836,1061.36 607.836,1061.73 607.607,1061.96L606.362,1063.2C606.133,1063.43 605.762,1063.43 605.532,1063.2L604.288,1061.96C604.059,1061.73 604.059,1061.36 604.288,1061.13L605.532,1059.88ZM602.282,1063.13C602.512,1062.9 602.883,1062.9 603.112,1063.13L604.357,1064.38C604.586,1064.61 604.586,1064.98 604.357,1065.21L603.112,1066.45C602.883,1066.68 602.512,1066.68 602.282,1066.45L601.038,1065.21C600.809,1064.98 600.809,1064.61 601.038,1064.38L602.282,1063.13ZM599.032,1066.38C599.262,1066.15 599.633,1066.15 599.862,1066.38L601.107,1067.63C601.336,1067.86 601.336,1068.23 601.107,1068.46L599.862,1069.7C599.633,1069.93 599.262,1069.93 599.032,1069.7L597.788,1068.46C597.559,1068.23 597.559,1067.86 597.788,1067.63L599.032,1066.38ZM595.782,1069.63C596.012,1069.4 596.383,1069.4 596.612,1069.63L597.856,1070.88C598.086,1071.11 598.086,1071.48 597.856,1071.71L596.612,1072.95C596.383,1073.18 596.012,1073.18 595.782,1072.95L594.538,1071.71C594.309,1071.48 594.309,1071.11 594.538,1070.88L595.782,1069.63ZM606.959,1057.05L591.708,1072.3L594.09,1074.69C594.695,1075.29 595.677,1075.29 596.282,1074.69L609.341,1061.63C609.946,1061.02 609.946,1060.04 609.341,1059.44L606.959,1057.05Z" style="fill:rgb(64,64,66);fill-rule:nonzero;"/>
    </g>
    <g transform="matrix(1.84203,0,0,1.84203,-1063.58,-1920.76)">
        <path d="M598.249,1048.34L594.893,1051.7L599.04,1055.85L602.396,1052.49L598.249,1048.34Z" style="fill:rgb(230,186,89);fill-rule:nonzero;"/>
    </g>
    <g transform="matrix(1.84203,0,0,1.84203,-1063.58,-1920.76)">
        <path d="M606.544,1056.64L602.396,1052.49L599.04,1055.85L603.187,1059.99L606.544,1056.64Z" style="fill:rgb(199,162,79);fill-rule:nonzero;"/>
    </g>
    <g transform="matrix(1.84203,0,0,1.84203,-1063.58,-1920.76)">
        <path d="M591.293,1071.89L594.649,1068.53L590.502,1064.39L587.145,1067.74L591.293,1071.89Z" style="fill:rgb(88,130,129);fill-rule:nonzero;"/>
    </g>
    <g transform="matrix(1.84203,0,0,1.84203,-1063.58,-1920.76)">
        <path d="M582.998,1063.59L587.145,1067.74L590.502,1064.39L586.354,1060.24L582.998,1063.59Z" style="fill:rgb(109,161,161);fill-rule:nonzero;"/>
    </g>
    <g transform="matrix(1.84203,0,0,1.84203,-1063.58,-1920.76)">
        <path d="M586.707,1059.89L590.854,1064.03L598.687,1056.2L594.54,1052.05L586.707,1059.89Z" style="fill:rgb(196,97,105);fill-rule:nonzero;"/>
    </g>
    <g transform="matrix(1.84203,0,0,1.84203,-1063.58,-1920.76)">
        <path d="M595.002,1068.18L602.836,1060.35L598.687,1056.2L590.854,1064.03L595.002,1068.18Z" style="fill:rgb(175,88,95);fill-rule:nonzero;"/>
    </g>
</svg>
