<?xml version="1.0" encoding="UTF-8" standalone="no"?>
<!DOCTYPE svg PUBLIC "-//W3C//DTD SVG 1.1//EN" "http://www.w3.org/Graphics/SVG/1.1/DTD/svg11.dtd">
<svg width="100%" height="100%" viewBox="0 0 64 64" version="1.1" xmlns="http://www.w3.org/2000/svg" xmlns:xlink="http://www.w3.org/1999/xlink" xml:space="preserve" xmlns:serif="http://www.serif.com/" style="fill-rule:evenodd;clip-rule:evenodd;stroke-linejoin:round;stroke-miterlimit:2;">
    <g transform="matrix(1.87188,0,0,1.87188,-107.585,-1206.99)">
        <path d="M83.753,673.87C83.606,675.823 81.728,677.362 79.552,677.367L69.633,677.385C67.457,677.389 65.573,675.855 65.42,673.903L64.633,654.012C64.439,651.638 66.258,651.052 68.79,651.048L80.327,651.029C82.858,651.025 84.683,651.604 84.497,653.979L83.753,673.87Z" style="fill:rgb(196,97,105);fill-rule:nonzero;"/>
    </g>
    <g transform="matrix(1.87188,0,0,1.87188,-107.585,-1206.99)">
        <path d="M80.327,651.029L74.565,651.039L74.565,677.376L79.552,677.367C81.728,677.362 83.606,675.823 83.753,673.87L84.497,653.979C84.683,651.604 82.858,651.025 80.327,651.029Z" style="fill:rgb(175,88,95);fill-rule:nonzero;"/>
    </g>
    <g transform="matrix(1.87188,0,0,1.87188,-107.585,-1206.99)">
        <path d="M80.987,673.253C80.987,673.966 80.564,674.544 80.042,674.544C79.52,674.544 79.097,673.966 79.097,673.253L79.097,653.952C79.097,653.239 79.52,652.661 80.042,652.661C80.564,652.661 80.987,653.239 80.987,653.952L80.987,673.253Z" style="fill:rgb(216,213,202);fill-rule:nonzero;"/>
    </g>
    <g transform="matrix(1.87188,0,0,1.87188,-107.585,-1206.99)">
        <path d="M77.364,673.253C77.364,673.966 76.941,674.544 76.419,674.544C75.897,674.544 75.474,673.966 75.474,673.253L75.474,653.952C75.474,653.239 75.897,652.661 76.419,652.661C76.941,652.661 77.364,653.239 77.364,653.952L77.364,673.253Z" style="fill:rgb(216,213,202);fill-rule:nonzero;"/>
    </g>
    <g transform="matrix(1.87188,0,0,1.87188,-107.585,-1206.99)">
        <path d="M73.741,673.253C73.741,673.966 73.318,674.544 72.796,674.544C72.274,674.544 71.851,673.966 71.851,673.253L71.851,653.952C71.851,653.239 72.274,652.661 72.796,652.661C73.318,652.661 73.741,653.239 73.741,653.952L73.741,673.253Z" style="fill:rgb(240,237,226);fill-rule:nonzero;"/>
    </g>
    <g transform="matrix(1.87188,0,0,1.87188,-107.585,-1206.99)">
        <path d="M70.119,673.253C70.119,673.966 69.695,674.544 69.173,674.544C68.651,674.544 68.228,673.966 68.228,673.253L68.228,653.952C68.228,653.239 68.651,652.661 69.173,652.661C69.695,652.661 70.119,653.239 70.119,653.952L70.119,673.253Z" style="fill:rgb(240,237,226);fill-rule:nonzero;"/>
    </g>
    <g transform="matrix(1.87188,0,0,1.87188,-107.585,-1206.99)">
        <path d="M66.847,648.778C66.303,648.778 65.862,649.22 65.862,649.763C65.862,650.307 66.303,650.747 66.847,650.747L74.565,650.747L74.565,648.778L66.847,648.778Z" style="fill:rgb(196,97,105);fill-rule:nonzero;"/>
    </g>
    <g transform="matrix(1.87188,0,0,1.87188,-107.585,-1206.99)">
        <path d="M82.283,648.778L74.565,648.778L74.565,650.747L82.283,650.747C82.827,650.747 83.268,650.307 83.268,649.763C83.268,649.22 82.827,648.778 82.283,648.778Z" style="fill:rgb(175,88,95);fill-rule:nonzero;"/>
    </g>
    <g transform="matrix(1.87188,0,0,1.87188,-107.585,-1206.99)">
        <path d="M76.455,647.502C76.455,646.893 75.961,646.399 75.353,646.399L74.565,646.399L74.565,648.604L75.353,648.604C75.961,648.604 76.455,648.11 76.455,647.502Z" style="fill:rgb(175,88,95);fill-rule:nonzero;"/>
    </g>
    <g transform="matrix(1.87188,0,0,1.87188,-107.585,-1206.99)">
        <path d="M73.777,646.399C73.168,646.399 72.675,646.893 72.675,647.502C72.675,648.11 73.168,648.604 73.777,648.604L74.565,648.604L74.565,646.399L73.777,646.399Z" style="fill:rgb(196,97,105);fill-rule:nonzero;"/>
    </g>
    <g transform="matrix(1.87188,0,0,1.87188,-107.585,-1206.99)">
        <path d="M64.473,655.302C64.473,655.784 64.082,656.176 63.599,656.176C63.117,656.176 62.726,655.784 62.726,655.302L62.726,653.069C62.726,652.587 63.117,652.195 63.599,652.195C64.082,652.195 64.473,652.587 64.473,653.069L64.473,655.302Z" style="fill:rgb(196,97,105);fill-rule:nonzero;"/>
    </g>
    <g transform="matrix(1.87188,0,0,1.87188,-107.585,-1206.99)">
        <path d="M86.412,655.302C86.412,655.784 86.021,656.176 85.539,656.176C85.056,656.176 84.665,655.784 84.665,655.302L84.665,653.069C84.665,652.587 85.056,652.195 85.539,652.195C86.021,652.195 86.412,652.587 86.412,653.069L86.412,655.302Z" style="fill:rgb(196,97,105);fill-rule:nonzero;"/>
    </g>
</svg>
