<?xml version="1.0" encoding="UTF-8" standalone="no"?>
<!DOCTYPE svg PUBLIC "-//W3C//DTD SVG 1.1//EN" "http://www.w3.org/Graphics/SVG/1.1/DTD/svg11.dtd">
<svg width="100%" height="100%" viewBox="0 0 64 64" version="1.1" xmlns="http://www.w3.org/2000/svg" xmlns:xlink="http://www.w3.org/1999/xlink" xml:space="preserve" xmlns:serif="http://www.serif.com/" style="fill-rule:evenodd;clip-rule:evenodd;stroke-linejoin:round;stroke-miterlimit:2;">
    <g transform="matrix(2.05108,0,0,2.05108,-1454.67,-644.937)">
        <path d="M724.816,345.64L711.643,337.924L711.647,322.194L724.821,329.91L724.816,345.64Z" style="fill:rgb(208,174,94);fill-rule:nonzero;"/>
    </g>
    <g transform="matrix(2.05108,0,0,2.05108,-1454.67,-644.937)">
        <path d="M724.826,345.64L738.001,337.924L737.996,322.194L724.821,329.91L724.826,345.64Z" style="fill:rgb(234,196,105);fill-rule:nonzero;"/>
    </g>
    <g transform="matrix(2.05108,0,0,2.05108,-1454.67,-644.937)">
        <path d="M724.816,329.917L737.993,322.198L724.923,314.437L711.656,322.202L724.816,329.917Z" style="fill:rgb(234,196,105);fill-rule:nonzero;"/>
    </g>
    <g transform="matrix(2.05108,0,0,2.05108,-1454.67,-644.937)">
        <path d="M719.097,326.596L719.116,326.584L719.116,331.122L717.776,330.307L717.767,325.794L719.097,326.596Z" style="fill:rgb(216,213,202);fill-rule:nonzero;"/>
    </g>
    <g transform="matrix(2.05108,0,0,2.05108,-1454.67,-644.937)">
        <path d="M730.84,318.059L732.166,318.835L719.116,326.584L719.097,326.596L717.803,325.83L717.803,325.783L730.84,318.059Z" style="fill:rgb(240,237,226);fill-rule:nonzero;"/>
    </g>
</svg>
