<?xml version="1.0" encoding="UTF-8" standalone="no"?>
<!DOCTYPE svg PUBLIC "-//W3C//DTD SVG 1.1//EN" "http://www.w3.org/Graphics/SVG/1.1/DTD/svg11.dtd">
<svg width="100%" height="100%" viewBox="0 0 64 64" version="1.1" xmlns="http://www.w3.org/2000/svg" xmlns:xlink="http://www.w3.org/1999/xlink" xml:space="preserve" xmlns:serif="http://www.serif.com/" style="fill-rule:evenodd;clip-rule:evenodd;stroke-linejoin:round;stroke-miterlimit:2;">
    <g transform="matrix(1.71501,0,0,1.71501,-764.999,-192.538)">
        <path d="M465.877,119.733C464.608,120.151 465.036,121.256 465.271,121.702C465.308,121.764 465.347,121.825 465.38,121.888C465.381,121.889 465.383,121.893 465.383,121.893L465.382,121.894C466.363,123.781 466.062,126.161 464.479,127.745C462.842,129.381 460.357,129.643 458.442,128.541C458.443,128.545 458.443,128.548 458.443,128.548C457.097,127.87 456.527,129.074 456.442,129.277C455.722,133.063 456.817,137.127 459.749,140.058C461.998,142.307 464.915,143.479 467.862,143.578L467.862,119.504C467.196,119.527 466.532,119.601 465.877,119.733Z" style="fill:rgb(240,237,226);fill-rule:nonzero;"/>
    </g>
    <g transform="matrix(1.71501,0,0,1.71501,-764.999,-192.538)">
        <path d="M476.792,123.014C474.335,120.557 471.081,119.392 467.862,119.504L467.862,143.578C471.081,143.687 474.335,142.515 476.792,140.058C481.499,135.352 481.499,127.721 476.792,123.014Z" style="fill:rgb(209,206,196);fill-rule:nonzero;"/>
    </g>
    <g transform="matrix(1.71501,0,0,1.71501,-764.999,-192.538)">
        <path d="M465.38,121.888C465.381,121.891 465.381,121.893 465.382,121.894L465.383,121.893C465.383,121.893 465.381,121.889 465.38,121.888Z" style="fill:rgb(240,237,226);fill-rule:nonzero;"/>
    </g>
    <g transform="matrix(1.71501,0,0,1.71501,-764.999,-192.538)">
        <path d="M460.38,130.862C461.641,130.524 462.938,131.273 463.276,132.534C463.614,133.795 462.865,135.092 461.603,135.43C460.343,135.768 459.046,135.02 458.708,133.758C458.37,132.497 459.119,131.201 460.38,130.862Z" style="fill:rgb(196,97,105);fill-rule:nonzero;"/>
    </g>
    <g transform="matrix(1.71501,0,0,1.71501,-764.999,-192.538)">
        <path d="M467.862,136.808L467.862,140.263C468.175,139.972 468.414,139.593 468.533,139.149C468.767,138.275 468.479,137.386 467.862,136.808Z" style="fill:rgb(214,172,84);fill-rule:nonzero;"/>
    </g>
    <g transform="matrix(1.71501,0,0,1.71501,-764.999,-192.538)">
        <path d="M466.861,136.253C465.6,135.916 464.304,136.664 463.966,137.925C463.628,139.187 464.376,140.483 465.638,140.821C466.455,141.04 467.285,140.801 467.862,140.263L467.862,136.808C467.588,136.552 467.249,136.357 466.861,136.253Z" style="fill:rgb(230,186,89);fill-rule:nonzero;"/>
    </g>
    <g transform="matrix(1.71501,0,0,1.71501,-764.999,-192.538)">
        <path d="M471.856,138.578C470.933,137.655 470.933,136.158 471.856,135.235C472.779,134.311 474.277,134.311 475.2,135.235C476.123,136.158 476.123,137.655 475.2,138.578C474.276,139.501 472.779,139.501 471.856,138.578Z" style="fill:rgb(97,143,142);fill-rule:nonzero;"/>
    </g>
    <g transform="matrix(1.71501,0,0,1.71501,-764.999,-192.538)">
        <path d="M476.504,132.211C475.243,132.549 473.946,131.8 473.608,130.539C473.27,129.277 474.019,127.98 475.28,127.643C476.541,127.305 477.838,128.054 478.175,129.315C478.514,130.576 477.765,131.873 476.504,132.211Z" style="fill:rgb(28,28,29);fill-rule:nonzero;"/>
    </g>
    <g transform="matrix(1.71501,0,0,1.71501,-764.999,-192.538)">
        <path d="M472.924,125.063C472.586,126.325 471.29,127.073 470.028,126.735C468.767,126.397 468.018,125.101 468.356,123.839C468.694,122.578 469.99,121.83 471.251,122.167C472.513,122.506 473.262,123.802 472.924,125.063Z" style="fill:rgb(214,172,84);fill-rule:nonzero;"/>
    </g>
    <g transform="matrix(1.71501,0,0,1.71501,-764.999,-192.538)">
        <path d="M450.716,126.704C450.402,128.802 450.251,131.465 450.449,134.255C450.879,140.333 451.314,144.572 452.254,144.676L452.254,126.704L450.716,126.704Z" style="fill:rgb(230,186,89);fill-rule:nonzero;"/>
    </g>
    <g transform="matrix(1.71501,0,0,1.71501,-764.999,-192.538)">
        <path d="M453.748,126.64L452.254,126.64L452.254,144.612C452.266,144.614 452.278,144.617 452.29,144.617C453.255,144.617 453.609,140.349 453.99,134.191C454.161,131.435 454.03,128.757 453.748,126.64Z" style="fill:rgb(214,172,84);fill-rule:nonzero;"/>
    </g>
    <g transform="matrix(1.71501,0,0,1.71501,-764.999,-192.538)">
        <path d="M450.893,125.67C450.83,125.996 450.77,126.341 450.716,126.704L452.254,126.704L452.254,125.67L450.893,125.67Z" style="fill:rgb(109,161,161);fill-rule:nonzero;"/>
    </g>
    <g transform="matrix(1.71501,0,0,1.71501,-764.999,-192.538)">
        <path d="M453.591,125.67L452.254,125.67L452.254,126.704L453.748,126.704C453.7,126.342 453.647,125.996 453.591,125.67Z" style="fill:rgb(97,143,142);fill-rule:nonzero;"/>
    </g>
    <g transform="matrix(1.71501,0,0,1.71501,-764.999,-192.538)">
        <path d="M452.232,117.175C452.232,117.175 449.119,119.522 449.119,122.417C449.119,125.312 450.513,125.75 452.232,125.75L452.254,125.75L452.254,117.192C452.245,117.185 452.232,117.175 452.232,117.175Z" style="fill:rgb(78,79,81);fill-rule:nonzero;"/>
    </g>
    <g transform="matrix(1.71501,0,0,1.71501,-764.999,-192.538)">
        <path d="M455.346,122.417C455.346,119.637 452.483,117.369 452.254,117.192L452.254,125.75C453.963,125.747 455.346,125.299 455.346,122.417Z" style="fill:rgb(28,28,29);fill-rule:nonzero;"/>
    </g>
</svg>
