<?xml version="1.0" encoding="UTF-8" standalone="no"?>
<!DOCTYPE svg PUBLIC "-//W3C//DTD SVG 1.1//EN" "http://www.w3.org/Graphics/SVG/1.1/DTD/svg11.dtd">
<svg width="100%" height="100%" viewBox="0 0 64 64" version="1.1" xmlns="http://www.w3.org/2000/svg" xmlns:xlink="http://www.w3.org/1999/xlink" xml:space="preserve" xmlns:serif="http://www.serif.com/" style="fill-rule:evenodd;clip-rule:evenodd;stroke-linejoin:round;stroke-miterlimit:2;">
    <g transform="matrix(1.83995,0,0,1.83995,-1899.86,-453.135)">
        <path d="M1057.71,279.269L1042.18,279.269C1041.29,279.269 1040.57,278.547 1040.57,277.657L1040.57,249.677C1040.57,248.787 1041.29,248.065 1042.18,248.065L1057.71,248.065C1058.6,248.065 1059.33,248.787 1059.33,249.677L1059.33,277.657C1059.33,278.547 1058.6,279.269 1057.71,279.269Z" style="fill:rgb(78,79,81);fill-rule:nonzero;"/>
    </g>
    <g transform="matrix(1.83995,0,0,1.83995,-1899.86,-453.135)">
        <path d="M1042.18,248.065C1041.29,248.065 1040.57,248.787 1040.57,249.677L1040.57,277.657C1040.57,278.547 1041.29,279.269 1042.18,279.269L1049.95,279.269L1049.95,248.065L1042.18,248.065Z" style="fill:rgb(78,79,81);fill-rule:nonzero;"/>
    </g>
    <g transform="matrix(1.83995,0,0,1.83995,-1899.86,-453.135)">
        <path d="M1057.71,248.065L1049.95,248.065L1049.95,279.269L1057.71,279.269C1058.6,279.269 1059.33,278.547 1059.33,277.657L1059.33,249.677C1059.33,248.787 1058.6,248.065 1057.71,248.065Z" style="fill:rgb(57,58,59);fill-rule:nonzero;"/>
    </g>
    <g transform="matrix(1.83995,0,0,1.83995,-1899.86,-453.135)">
        <rect x="1042.53" y="250.878" width="9.23" height="25.578" style="fill:rgb(240,237,226);fill-rule:nonzero;"/>
    </g>
    <g transform="matrix(1.83995,0,0,1.83995,-1899.86,-453.135)">
        <rect x="1049.95" y="250.878" width="7.42" height="25.578" style="fill:rgb(214,211,200);fill-rule:nonzero;"/>
    </g>
    <g transform="matrix(1.83995,0,0,1.83995,-1899.86,-453.135)">
        <path d="M1047.41,249.369C1047.36,249.369 1047.32,249.471 1047.32,249.596C1047.32,249.721 1047.36,249.822 1047.41,249.822L1049.95,249.822L1049.95,249.369L1047.41,249.369Z" style="fill:rgb(234,196,105);fill-rule:nonzero;"/>
    </g>
    <g transform="matrix(1.83995,0,0,1.83995,-1899.86,-453.135)">
        <path d="M1052.56,249.369L1049.95,249.369L1049.95,249.822L1052.56,249.822C1052.6,249.822 1052.64,249.721 1052.64,249.596C1052.64,249.471 1052.6,249.369 1052.56,249.369Z" style="fill:rgb(208,174,94);fill-rule:nonzero;"/>
    </g>
    <g transform="matrix(1.83995,0,0,1.83995,-1899.86,-453.135)">
        <path d="M1048.98,276.899C1048.57,276.899 1048.24,277.228 1048.24,277.634C1048.24,278.04 1048.57,278.37 1048.98,278.37L1049.93,278.37L1049.93,276.899L1048.98,276.899Z" style="fill:rgb(234,196,105);fill-rule:nonzero;"/>
    </g>
    <g transform="matrix(1.83995,0,0,1.83995,-1899.86,-453.135)">
        <path d="M1050.89,276.899L1049.93,276.899L1049.93,278.37L1050.89,278.37C1051.29,278.37 1051.62,278.04 1051.62,277.634C1051.62,277.228 1051.29,276.899 1050.89,276.899Z" style="fill:rgb(208,174,94);fill-rule:nonzero;"/>
    </g>
</svg>
