<?xml version="1.0" encoding="UTF-8" standalone="no"?>
<!DOCTYPE svg PUBLIC "-//W3C//DTD SVG 1.1//EN" "http://www.w3.org/Graphics/SVG/1.1/DTD/svg11.dtd">
<svg width="100%" height="100%" viewBox="0 0 64 64" version="1.1" xmlns="http://www.w3.org/2000/svg" xmlns:xlink="http://www.w3.org/1999/xlink" xml:space="preserve" xmlns:serif="http://www.serif.com/" style="fill-rule:evenodd;clip-rule:evenodd;stroke-linejoin:round;stroke-miterlimit:2;">
    <g transform="matrix(1.81015,0,0,1.81015,-573.804,-204.995)">
        <path d="M347.921,128.6L335.606,131.437L333.681,131.881L335.606,123.525L336.962,117.645C336.514,117.541 336.061,117.459 335.606,117.399C335.067,117.328 334.524,117.283 333.981,117.271C333.965,117.271 333.951,117.27 333.936,117.27C333.896,117.269 333.857,117.271 333.818,117.271C330.136,117.235 326.439,118.583 323.573,121.329C323.559,121.342 323.544,121.355 323.53,121.369C323.392,121.501 323.26,121.638 323.129,121.775L323.13,121.775C320.506,124.51 319.148,128.024 319.072,131.566C319.071,131.586 319.069,131.605 319.069,131.625C319.068,131.671 319.07,131.716 319.07,131.761C319.04,135.438 320.386,139.127 323.128,141.989C323.142,142.003 323.154,142.018 323.168,142.032C323.301,142.17 323.437,142.301 323.574,142.432C326.887,145.61 331.344,146.927 335.606,146.365C338.598,145.97 341.494,144.651 343.832,142.394C346.72,139.605 348.21,135.915 348.29,132.196C348.29,132.186 348.29,132.176 348.291,132.166C348.314,130.97 348.19,129.771 347.921,128.6Z" style="fill:rgb(230,186,89);fill-rule:nonzero;"/>
    </g>
    <g transform="matrix(1.81015,0,0,1.81015,-573.804,-204.995)">
        <path d="M346.584,119.489C346.57,119.475 346.558,119.46 346.544,119.446C346.412,119.308 346.274,119.177 346.138,119.045C344.172,117.161 341.805,115.932 339.313,115.36L337.957,121.241L336.032,129.597L337.957,129.153L350.272,126.315C349.701,123.83 348.475,121.462 346.584,119.489Z" style="fill:rgb(196,97,105);fill-rule:nonzero;"/>
    </g>
</svg>
