<?xml version="1.0" encoding="UTF-8" standalone="no"?>
<!DOCTYPE svg PUBLIC "-//W3C//DTD SVG 1.1//EN" "http://www.w3.org/Graphics/SVG/1.1/DTD/svg11.dtd">
<svg width="100%" height="100%" viewBox="0 0 64 64" version="1.1" xmlns="http://www.w3.org/2000/svg" xmlns:xlink="http://www.w3.org/1999/xlink" xml:space="preserve" xmlns:serif="http://www.serif.com/" style="fill-rule:evenodd;clip-rule:evenodd;stroke-linejoin:round;stroke-miterlimit:2;">
    <g transform="matrix(1.79758,0,0,1.79758,-1621.59,-441.962)">
        <path d="M932.549,251.016C928.614,247.082 922.236,247.082 918.303,251.016C914.368,254.95 914.368,261.328 918.303,265.262C918.311,265.271 918.322,265.28 918.331,265.29L932.576,251.045C932.566,251.035 932.559,251.025 932.549,251.016Z" style="fill:rgb(78,79,81);fill-rule:nonzero;"/>
    </g>
    <g transform="matrix(1.79758,0,0,1.79758,-1621.59,-441.962)">
        <path d="M932.549,265.262C936.473,261.337 936.481,254.981 932.576,251.045L918.331,265.29C922.268,269.195 928.624,269.186 932.549,265.262Z" style="fill:rgb(57,58,59);fill-rule:nonzero;"/>
    </g>
    <g transform="matrix(1.79758,0,0,1.79758,-1621.59,-441.962)">
        <path d="M931.086,263.799C934.202,260.683 934.211,255.636 931.113,252.508L919.794,263.827C922.923,266.925 927.969,266.916 931.086,263.799Z" style="fill:rgb(102,146,146);fill-rule:nonzero;"/>
    </g>
    <g transform="matrix(1.79758,0,0,1.79758,-1621.59,-441.962)">
        <path d="M931.086,252.479C927.96,249.353 922.892,249.353 919.766,252.479C916.639,255.605 916.639,260.673 919.766,263.799C919.774,263.809 919.785,263.817 919.794,263.827L931.113,252.508C931.103,252.498 931.096,252.488 931.086,252.479Z" style="fill:rgb(121,174,174);fill-rule:nonzero;"/>
    </g>
    <g transform="matrix(1.79758,0,0,1.79758,-1621.59,-441.962)">
        <path d="M920.336,265.614L919.172,264.449L914.545,269.076L915.71,270.24L920.336,265.614Z" style="fill:rgb(57,58,59);fill-rule:nonzero;"/>
    </g>
    <g transform="matrix(1.79758,0,0,1.79758,-1621.59,-441.962)">
        <path d="M917.951,263.228L913.324,267.855L914.545,269.076L919.172,264.449L917.951,263.228Z" style="fill:rgb(78,79,81);fill-rule:nonzero;"/>
    </g>
    <g transform="matrix(1.79758,0,0,1.79758,-1621.59,-441.962)">
        <path d="M915.266,266.636C914.868,266.239 914.225,266.238 913.828,266.636L904.594,275.87C904.196,276.267 904.196,276.911 904.594,277.308L905.453,278.168L916.126,267.496L915.266,266.636Z" style="fill:rgb(78,79,81);fill-rule:nonzero;"/>
    </g>
    <g transform="matrix(1.79758,0,0,1.79758,-1621.59,-441.962)">
        <path d="M916.929,268.299L916.126,267.496L905.453,278.168L906.257,278.971C906.654,279.368 907.298,279.368 907.694,278.971L916.929,269.737C917.326,269.34 917.326,268.696 916.929,268.299Z" style="fill:rgb(57,58,59);fill-rule:nonzero;"/>
    </g>
    <g transform="matrix(1.79758,0,0,1.79758,-1621.59,-441.962)">
        <path d="M921.326,253.202C921.211,253.087 921.211,252.9 921.326,252.784C923.62,250.491 927.352,250.491 929.646,252.785C929.762,252.9 929.769,253.095 929.653,253.21C929.535,253.329 929.349,253.338 929.227,253.2C927.165,251.139 923.808,251.139 921.744,253.202C921.629,253.318 921.442,253.318 921.326,253.202Z" style="fill:rgb(240,237,226);fill-rule:nonzero;"/>
    </g>
    <g transform="matrix(1.79758,0,0,1.79758,-1621.59,-441.962)">
        <path d="M908.759,271.483L906.987,273.255L908.655,274.923L910.428,273.152L908.759,271.483Z" style="fill:rgb(205,119,124);fill-rule:nonzero;"/>
    </g>
    <g transform="matrix(1.79758,0,0,1.79758,-1621.59,-441.962)">
        <path d="M912.081,274.806L910.428,273.152L908.655,274.923L910.31,276.577L912.081,274.806Z" style="fill:rgb(188,110,113);fill-rule:nonzero;"/>
    </g>
</svg>
