<?xml version="1.0" encoding="UTF-8" standalone="no"?>
<!DOCTYPE svg PUBLIC "-//W3C//DTD SVG 1.1//EN" "http://www.w3.org/Graphics/SVG/1.1/DTD/svg11.dtd">
<svg width="100%" height="100%" viewBox="0 0 64 64" version="1.1" xmlns="http://www.w3.org/2000/svg" xmlns:xlink="http://www.w3.org/1999/xlink" xml:space="preserve" xmlns:serif="http://www.serif.com/" style="fill-rule:evenodd;clip-rule:evenodd;stroke-linejoin:round;stroke-miterlimit:2;">
    <g transform="matrix(1.81675,0,0,1.81675,-1875.5,-326.439)">
        <path d="M1060.45,197.296C1062.56,196.464 1064.08,194.121 1064.08,191.931C1064.08,191.316 1063.96,190.728 1063.74,190.186L1053.93,190.186C1053.71,190.728 1053.59,191.316 1053.59,191.931C1053.59,194.121 1055.11,196.464 1057.21,197.296C1055.11,198.129 1053.59,200.472 1053.59,202.662C1053.59,203.276 1053.71,203.864 1053.93,204.407L1063.74,204.407C1063.96,203.864 1064.08,203.276 1064.08,202.662C1064.08,200.472 1062.56,198.129 1060.45,197.296Z" style="fill:rgb(240,237,226);fill-rule:nonzero;"/>
    </g>
    <g transform="matrix(1.81675,0,0,1.81675,-1875.5,-326.439)">
        <path d="M1053.04,189.85L1064.62,189.85C1065.13,189.85 1065.55,189.525 1065.55,189.125C1065.55,188.726 1065.13,188.401 1064.62,188.401L1053.04,188.401C1052.53,188.401 1052.12,188.726 1052.12,189.125C1052.12,189.525 1052.53,189.85 1053.04,189.85Z" style="fill:rgb(64,64,66);fill-rule:nonzero;"/>
    </g>
    <g transform="matrix(1.81675,0,0,1.81675,-1875.5,-326.439)">
        <path d="M1053.04,188.401C1052.53,188.401 1052.12,188.726 1052.12,189.125C1052.12,189.525 1052.53,189.85 1053.04,189.85L1058.78,189.85L1058.78,188.401L1053.04,188.401Z" style="fill:rgb(78,79,81);fill-rule:nonzero;"/>
    </g>
    <g transform="matrix(1.81675,0,0,1.81675,-1875.5,-326.439)">
        <path d="M1053.04,206.191L1064.62,206.191C1065.13,206.191 1065.55,205.867 1065.55,205.467C1065.55,205.067 1065.13,204.743 1064.62,204.743L1053.04,204.743C1052.53,204.743 1052.12,205.067 1052.12,205.467C1052.12,205.867 1052.53,206.191 1053.04,206.191Z" style="fill:rgb(64,64,66);fill-rule:nonzero;"/>
    </g>
    <g transform="matrix(1.81675,0,0,1.81675,-1875.5,-326.439)">
        <path d="M1053.04,204.743C1052.53,204.743 1052.12,205.067 1052.12,205.467C1052.12,205.867 1052.53,206.191 1053.04,206.191L1058.78,206.191L1058.78,204.743L1053.04,204.743Z" style="fill:rgb(78,79,81);fill-rule:nonzero;"/>
    </g>
    <g transform="matrix(1.81675,0,0,1.81675,-1875.5,-326.439)">
        <path d="M1060.45,197.296C1062.56,196.464 1064.08,194.121 1064.08,191.931C1064.08,191.316 1063.96,190.728 1063.74,190.186L1058.83,190.186L1058.83,204.407L1063.74,204.407C1063.96,203.864 1064.08,203.276 1064.08,202.662C1064.08,200.472 1062.56,198.129 1060.45,197.296Z" style="fill:rgb(216,213,202);fill-rule:nonzero;"/>
    </g>
    <g transform="matrix(1.81675,0,0,1.81675,-1875.5,-326.439)">
        <path d="M1055.24,193.821C1055.24,195.396 1056.99,196.202 1058.43,196.801C1058.43,196.801 1058.81,200.784 1057.13,202.425C1055.45,204.073 1055.66,203.178 1055.7,203.87L1058.86,203.871L1058.86,193.821L1055.24,193.821Z" style="fill:rgb(230,186,89);fill-rule:nonzero;"/>
    </g>
    <g transform="matrix(1.81675,0,0,1.81675,-1875.5,-326.439)">
        <path d="M1060.44,202.479C1058.9,200.941 1059.16,196.794 1059.16,196.794C1060.6,196.196 1062.43,195.396 1062.43,193.821L1058.86,193.821L1058.86,203.871L1061.83,203.873C1061.83,203.2 1061.98,204.017 1060.44,202.479Z" style="fill:rgb(199,162,79);fill-rule:nonzero;"/>
    </g>
    <g transform="matrix(1.81675,0,0,1.81675,-1875.5,-326.439)">
        <path d="M1049.59,202.262L1046.81,197.325L1049.59,192.388L1053.28,186.682C1053.63,186.14 1053.52,184.68 1051.56,184.68L1044.54,184.68L1044.54,185.538L1051.05,185.538C1051.7,185.538 1052.13,186.141 1051.88,186.683L1045.58,197.117C1045.51,197.253 1045.51,197.396 1045.58,197.533L1051.9,207.967C1052.16,208.509 1051.72,209.113 1051.07,209.113L1044.54,209.113L1044.54,209.949L1051.56,209.949C1053.36,209.949 1053.63,208.51 1053.28,207.968L1049.59,202.262Z" style="fill:rgb(88,130,129);fill-rule:nonzero;"/>
    </g>
    <g transform="matrix(1.81675,0,0,1.81675,-1875.5,-326.439)">
        <path d="M1038.14,209.113C1037.49,209.113 1037.06,208.509 1037.31,207.967L1043.58,197.533C1043.64,197.396 1043.64,197.253 1043.58,197.117L1037.18,186.683C1036.93,186.141 1037.36,185.538 1038.01,185.538L1044.54,185.538L1044.54,184.68L1037.6,184.68C1035.63,184.68 1035.56,186.14 1035.91,186.682L1039.59,192.388L1042.38,197.246L1039.59,202.262L1035.91,207.968C1035.56,208.51 1035.52,209.949 1037.6,209.949L1044.54,209.949L1044.54,209.113L1038.14,209.113Z" style="fill:rgb(126,188,187);fill-rule:nonzero;"/>
    </g>
    <g transform="matrix(1.81675,0,0,1.81675,-1875.5,-326.439)">
        <path d="M1044.54,209.113L1051.07,209.113C1051.72,209.113 1052.16,208.509 1051.9,207.967L1045.58,197.533C1045.51,197.396 1045.51,197.253 1045.58,197.117L1051.88,186.683C1052.13,186.141 1051.7,185.538 1051.05,185.538L1044.54,185.538L1044.54,209.113Z" style="fill:rgb(216,213,202);fill-rule:nonzero;"/>
    </g>
    <g transform="matrix(1.81675,0,0,1.81675,-1875.5,-326.439)">
        <path d="M1037.18,186.683L1043.58,197.117C1043.64,197.253 1043.64,197.396 1043.58,197.533L1037.31,207.967C1037.06,208.509 1037.49,209.113 1038.14,209.113L1044.54,209.113L1044.54,185.538L1038.01,185.538C1037.36,185.538 1036.93,186.141 1037.18,186.683Z" style="fill:rgb(240,237,226);fill-rule:nonzero;"/>
    </g>
    <g transform="matrix(1.81675,0,0,1.81675,-1875.5,-326.439)">
        <path d="M1035.76,184.203L1053.4,184.203C1054.18,184.203 1054.81,183.709 1054.81,183.099C1054.81,182.49 1054.18,181.996 1053.4,181.996L1035.76,181.996C1034.98,181.996 1034.35,182.49 1034.35,183.099C1034.35,183.709 1034.98,184.203 1035.76,184.203Z" style="fill:rgb(64,64,66);fill-rule:nonzero;"/>
    </g>
    <g transform="matrix(1.81675,0,0,1.81675,-1875.5,-326.439)">
        <path d="M1053.4,210.39L1035.76,210.39C1034.98,210.39 1034.35,210.884 1034.35,211.493C1034.35,212.103 1034.98,212.597 1035.76,212.597L1053.4,212.597C1054.18,212.597 1054.81,212.103 1054.81,211.493C1054.81,210.884 1054.18,210.39 1053.4,210.39Z" style="fill:rgb(64,64,66);fill-rule:nonzero;"/>
    </g>
    <g transform="matrix(1.81675,0,0,1.81675,-1875.5,-326.439)">
        <path d="M1035.76,181.996C1034.98,181.996 1034.35,182.49 1034.35,183.099C1034.35,183.709 1034.98,184.203 1035.76,184.203L1044.49,184.203L1044.49,181.996L1035.76,181.996Z" style="fill:rgb(78,79,81);fill-rule:nonzero;"/>
    </g>
    <g transform="matrix(1.81675,0,0,1.81675,-1875.5,-326.439)">
        <path d="M1035.76,210.39C1034.98,210.39 1034.35,210.884 1034.35,211.493C1034.35,212.103 1034.98,212.597 1035.76,212.597L1044.49,212.597L1044.49,210.39L1035.76,210.39Z" style="fill:rgb(78,79,81);fill-rule:nonzero;"/>
    </g>
    <g transform="matrix(1.81675,0,0,1.81675,-1875.5,-326.439)">
        <path d="M1044.07,197.238L1041.17,192.231C1041.17,192.231 1044.87,191.941 1046.87,189.745C1048.29,189.163 1048.08,190.602 1048.08,190.602C1048.08,190.602 1045.43,196.165 1045.12,197.188C1044.24,208.489 1049.66,207.222 1049.89,207.737C1050.12,208.252 1050.12,208.767 1045.36,208.767C1040.61,208.767 1039.3,208.687 1039.3,207.962C1039.3,207.238 1045.05,208.506 1044.07,197.238Z" style="fill:rgb(230,186,89);fill-rule:nonzero;"/>
    </g>
    <g transform="matrix(1.81675,0,0,1.81675,-1875.5,-326.439)">
        <path d="M1049.89,207.737C1049.66,207.222 1044.24,208.489 1045.12,197.188C1045.43,196.165 1048.08,190.602 1048.08,190.602C1048.08,190.602 1048.29,189.163 1046.87,189.745C1046.24,190.44 1045.44,190.944 1044.63,191.309L1044.63,208.766C1044.87,208.767 1045.11,208.767 1045.36,208.767C1050.12,208.767 1050.12,208.252 1049.89,207.737Z" style="fill:rgb(199,162,79);fill-rule:nonzero;"/>
    </g>
</svg>
